<?xml version="1.0" encoding="UTF-8" standalone="no"?>
<!-- Creator: fig2dev Version 3.2 Patchlevel 5e -->

<!-- CreationDate: Wed Jul 15 19:44:38 2015 -->

<!-- Magnification: 1.000 -->

<svg
   xmlns:dc="http://purl.org/dc/elements/1.1/"
   xmlns:cc="http://creativecommons.org/ns#"
   xmlns:rdf="http://www.w3.org/1999/02/22-rdf-syntax-ns#"
   xmlns:svg="http://www.w3.org/2000/svg"
   xmlns="http://www.w3.org/2000/svg"
   xmlns:sodipodi="http://sodipodi.sourceforge.net/DTD/sodipodi-0.dtd"
   xmlns:inkscape="http://www.inkscape.org/namespaces/inkscape"
   width="6.8in"
   height="2.8in"
   viewBox="1113 1113 8134 3310"
   id="svg2"
   version="1.1"
   inkscape:version="0.48.5 r10040"
   sodipodi:docname="host-obj.fig">
  <metadata
     id="metadata134">
    <rdf:RDF>
      <cc:Work
         rdf:about="">
        <dc:format>image/svg+xml</dc:format>
        <dc:type
           rdf:resource="http://purl.org/dc/dcmitype/StillImage" />
        <dc:title></dc:title>
      </cc:Work>
    </rdf:RDF>
  </metadata>
  <defs
     id="defs132" />
  <sodipodi:namedview
     pagecolor="#ffffff"
     bordercolor="#666666"
     borderopacity="1"
     objecttolerance="10"
     gridtolerance="10"
     guidetolerance="10"
     inkscape:pageopacity="0"
     inkscape:pageshadow="2"
     inkscape:window-width="785"
     inkscape:window-height="712"
     id="namedview130"
     showgrid="false"
     inkscape:zoom="1.3"
     inkscape:cx="432.86063"
     inkscape:cy="126"
     inkscape:window-x="298"
     inkscape:window-y="-13"
     inkscape:window-maximized="0"
     inkscape:current-layer="svg2" />
  <rect
     id="rect6"
     style="fill:#00ff00;stroke:#000000;stroke-width:7;stroke-linecap:butt;stroke-linejoin:miter"
     rx="0"
     height="900"
     width="1950"
     y="1125"
     x="7200" />
  <circle
     sodipodi:ry="46"
     sodipodi:rx="46"
     sodipodi:cy="1800"
     sodipodi:cx="8850"
     id="circle8"
     style="fill:#000000;stroke:#000000;stroke-width:7"
     r="46"
     cy="1800"
     cx="8850" />
  <circle
     sodipodi:ry="46"
     sodipodi:rx="46"
     sodipodi:cy="1950"
     sodipodi:cx="8850"
     id="circle10"
     style="fill:#000000;stroke:#000000;stroke-width:7"
     r="46"
     cy="1950"
     cx="8850" />
  <polygon
     id="polygon12"
     style="fill:#bdbebd;stroke:#000000;stroke-width:15;stroke-linecap:butt;stroke-linejoin:miter"
     points="5775,3375 6000,3000 6000,2700 4425,3150 4425,3150 4425,3375 " />
  <polyline
     id="polyline14"
     style="fill:none;stroke:#000000;stroke-width:15;stroke-linecap:butt;stroke-linejoin:miter"
     points="5775,3150 5775,3375 " />
  <rect
     id="rect16"
     style="fill:#000000;stroke:#000000;stroke-width:7;stroke-linecap:butt;stroke-linejoin:miter"
     rx="0"
     height="75"
     width="375"
     y="1275"
     x="7350" />
  <rect
     id="rect18"
     style="fill:#000000;stroke:#000000;stroke-width:7;stroke-linecap:butt;stroke-linejoin:miter"
     rx="0"
     height="75"
     width="375"
     y="1275"
     x="7875" />
  <rect
     id="rect20"
     style="fill:#000000;stroke:#000000;stroke-width:7;stroke-linecap:butt;stroke-linejoin:miter"
     rx="0"
     height="75"
     width="375"
     y="1275"
     x="8400" />
  <rect
     id="rect22"
     style="fill:#000000;stroke:#000000;stroke-width:7;stroke-linecap:butt;stroke-linejoin:miter"
     rx="0"
     height="75"
     width="375"
     y="1875"
     x="7350" />
  <rect
     id="rect24"
     style="fill:#000000;stroke:#000000;stroke-width:7;stroke-linecap:butt;stroke-linejoin:miter"
     rx="0"
     height="75"
     width="375"
     y="1875"
     x="7875" />
  <rect
     id="rect26"
     style="fill:#000000;stroke:#000000;stroke-width:7;stroke-linecap:butt;stroke-linejoin:miter"
     rx="0"
     height="225"
     width="300"
     y="1500"
     x="7650" />
  <rect
     id="rect28"
     style="fill:none;stroke:#ffffff;stroke-width:15;stroke-linecap:butt;stroke-linejoin:miter"
     rx="0"
     height="75"
     width="225"
     y="1725"
     x="7350" />
  <rect
     id="rect30"
     style="fill:none;stroke:#ffffff;stroke-width:15;stroke-linecap:butt;stroke-linejoin:miter"
     rx="0"
     height="75"
     width="225"
     y="1575"
     x="7350" />
  <polyline
     id="polyline32"
     style="fill:none;stroke:#ffff00;stroke-width:15;stroke-linecap:butt;stroke-linejoin:miter"
     points="8025,1650 8775,1650 8775,1950 " />
  <polyline
     id="polyline34"
     style="fill:none;stroke:#ffff00;stroke-width:15;stroke-linecap:butt;stroke-linejoin:miter"
     points="8025,1725 8700,1725 8700,1950 " />
  <polyline
     id="polyline36"
     style="fill:none;stroke:#ffff00;stroke-width:15;stroke-linecap:butt;stroke-linejoin:miter"
     points="8025,1800 8625,1800 8625,1950 " />
  <rect
     id="rect38"
     style="fill:none;stroke:#000000;stroke-width:15;stroke-linecap:butt;stroke-linejoin:miter"
     rx="0"
     height="225"
     width="75"
     y="1350"
     x="9150" />
  <rect
     id="rect40"
     style="fill:#00ff00;stroke:#000000;stroke-width:7;stroke-linecap:butt;stroke-linejoin:miter"
     rx="0"
     height="75"
     width="1050"
     y="2025"
     x="7950" />
  <polygon
     id="polygon42"
     style="fill:#ffffff;stroke:#000000;stroke-width:7;stroke-linecap:butt;stroke-linejoin:miter"
     points="9000,3850 9000,3600 7462,3650 7462,3650 7462,3950 " />
  <polygon
     id="polygon44"
     style="fill:#004747;stroke:#000000;stroke-width:7;stroke-linecap:butt;stroke-linejoin:miter"
     points="7495,4050 7462,3950 7462,3950 7275,3700 " />
  <polygon
     id="polygon46"
     style="fill:#ffffff;stroke:#000000;stroke-width:7;stroke-linecap:butt;stroke-linejoin:miter"
     points="7495,3500 7462,3650 7275,3450 7275,3450 7307,3350 " />
  <polygon
     id="polygon48"
     style="fill:#ffffff;stroke:#000000;stroke-width:7;stroke-linecap:butt;stroke-linejoin:miter"
     points="7559,3400 7462,3350 7307,3350 7495,3500 8939,3450 8939,3450 8748,3400 " />
  <polygon
     id="polygon50"
     style="fill:#7f7f7f;stroke:#000000;stroke-width:7;stroke-linecap:butt;stroke-linejoin:miter"
     points="8748,3350 8748,3400 7559,3400 7462,3350 7462,3300 7462,3300 8594,3300 " />
  <polygon
     id="polygon52"
     style="fill:#004747;stroke:#000000;stroke-width:7;stroke-linecap:butt;stroke-linejoin:miter"
     points="9000,3950 9000,3850 7462,3950 7462,3950 7495,4050 " />
  <polygon
     id="polygon54"
     style="fill:#ffffff;stroke:#000000;stroke-width:7;stroke-linecap:butt;stroke-linejoin:miter"
     points="7462,3650 7462,3950 7275,3700 7275,3700 7275,3450 " />
  <polygon
     id="polygon56"
     style="fill:#ffffff;stroke:#000000;stroke-width:7;stroke-linecap:butt;stroke-linejoin:miter"
     points="8939,3450 9000,3600 7462,3650 7462,3650 7495,3500 " />
  <polyline
     id="polyline58"
     style="fill:none;stroke:#000000;stroke-width:15;stroke-linecap:butt;stroke-linejoin:miter"
     points="8025,2100 8025,2025 " />
  <polyline
     id="polyline60"
     style="fill:none;stroke:#000000;stroke-width:15;stroke-linecap:butt;stroke-linejoin:miter"
     points="8100,2100 8100,2025 " />
  <polyline
     id="polyline62"
     style="fill:none;stroke:#000000;stroke-width:15;stroke-linecap:butt;stroke-linejoin:miter"
     points="8175,2100 8175,2025 " />
  <polyline
     id="polyline64"
     style="fill:none;stroke:#000000;stroke-width:15;stroke-linecap:butt;stroke-linejoin:miter"
     points="8250,2100 8250,2025 " />
  <polyline
     id="polyline66"
     style="fill:none;stroke:#000000;stroke-width:15;stroke-linecap:butt;stroke-linejoin:miter"
     points="8325,2100 8325,2025 " />
  <polyline
     id="polyline68"
     style="fill:none;stroke:#000000;stroke-width:15;stroke-linecap:butt;stroke-linejoin:miter"
     points="8400,2100 8400,2025 " />
  <polyline
     id="polyline70"
     style="fill:none;stroke:#000000;stroke-width:15;stroke-linecap:butt;stroke-linejoin:miter"
     points="8475,2100 8475,2025 " />
  <polyline
     id="polyline72"
     style="fill:none;stroke:#000000;stroke-width:15;stroke-linecap:butt;stroke-linejoin:miter"
     points="8550,2100 8550,2025 " />
  <polyline
     id="polyline74"
     style="fill:none;stroke:#000000;stroke-width:15;stroke-linecap:butt;stroke-linejoin:miter"
     points="8625,2100 8625,2025 " />
  <polyline
     id="polyline76"
     style="fill:none;stroke:#000000;stroke-width:15;stroke-linecap:butt;stroke-linejoin:miter"
     points="8700,2100 8700,2025 " />
  <polyline
     id="polyline78"
     style="fill:none;stroke:#000000;stroke-width:15;stroke-linecap:butt;stroke-linejoin:miter"
     points="8775,2100 8775,2025 " />
  <rect
     id="rect80"
     style="fill:#848284;stroke:#000000;stroke-width:7;stroke-linecap:butt;stroke-linejoin:bevel"
     rx="0"
     height="75"
     width="750"
     y="2775"
     x="1800" />
  <rect
     id="rect82"
     style="fill:#848284;stroke:#000000;stroke-width:7;stroke-linecap:butt;stroke-linejoin:bevel"
     rx="0"
     height="75"
     width="900"
     y="2850"
     x="1725" />
  <polygon
     id="polygon84"
     style="fill:#dedfde;stroke:#000000;stroke-width:7;stroke-linecap:butt;stroke-linejoin:bevel"
     points="3225,3300 3225,3375 1125,3375 1125,3300 1350,2925 1350,2925 3000,2925 " />
  <polyline
     id="polyline86"
     style="fill:#bdbebd;stroke:#000000;stroke-width:7;stroke-linecap:butt;stroke-linejoin:bevel"
     points="1125,3300 1125,3375 3225,3375 3225,3300 " />
  <polygon
     id="polygon88"
     style="fill:#ffffff;stroke:#000000;stroke-width:0;stroke-linecap:butt;stroke-linejoin:bevel"
     points="2625,3225 2550,3000 1425,3000 1425,3000 1275,3225 " />
  <rect
     id="rect90"
     style="fill:#dedfde;stroke:#000000;stroke-width:7;stroke-linecap:butt;stroke-linejoin:bevel"
     rx="0"
     height="1500"
     width="1800"
     y="1275"
     x="1275" />
  <polyline
     id="polyline92"
     style="fill:none;stroke:#000000;stroke-width:15;stroke-linecap:butt;stroke-linejoin:bevel"
     points="5849,3086 5851,3086 5857,3086 5867,3086 5882,3085 5904,3085 5932,3084 5966,3083 6007,3082 6052,3081 6102,3080 6155,3078 6210,3077 6266,3075 6322,3073 6377,3071 6431,3069 6483,3066 6532,3064 6579,3061 6623,3058 6664,3055 6703,3052 6740,3049 6774,3046 6805,3042 6835,3038 6864,3034 6890,3029 6915,3025 6939,3020 6962,3014 6992,3007 7020,2998 7047,2989 7073,2980 7098,2969 7122,2957 7145,2945 7167,2932 7188,2918 7208,2903 7226,2887 7244,2870 7260,2853 7275,2835 7289,2817 7301,2798 7313,2779 7323,2760 7332,2740 7340,2720 7347,2700 7353,2680 7358,2659 7363,2638 7366,2617 7369,2597 7372,2575 7374,2552 7376,2528 7377,2503 7378,2475 7378,2446 7377,2414 7377,2380 7376,2344 7374,2306 7372,2266 7370,2225 7367,2183 7364,2142 7362,2103 7359,2067 7357,2034 7355,2007 7353,1985 7352,1969 7351,1958 7350,1953 7350,1950 " />
  <polyline
     id="polyline94"
     style="fill:none;stroke:#000000;stroke-width:15;stroke-linecap:butt;stroke-linejoin:bevel"
     points="2631,2879 2633,2879 2639,2878 2648,2878 2664,2876 2685,2875 2713,2873 2746,2870 2786,2867 2831,2864 2879,2860 2931,2856 2985,2852 3040,2849 3094,2845 3148,2841 3200,2837 3250,2834 3297,2831 3342,2828 3384,2826 3423,2824 3459,2822 3493,2820 3525,2819 3554,2818 3580,2817 3605,2817 3628,2816 3650,2816 3670,2817 3689,2817 3719,2819 3747,2821 3772,2824 3794,2828 3814,2832 3832,2837 3848,2842 3861,2848 3872,2854 3882,2861 3889,2867 3895,2874 3900,2881 3904,2888 3907,2894 3909,2901 3911,2907 3913,2913 3915,2919 3918,2925 3921,2931 3925,2937 3930,2942 3936,2948 3943,2953 3951,2957 3961,2961 3972,2965 3984,2968 3997,2971 4011,2973 4027,2974 4044,2975 4063,2975 4077,2975 4093,2974 4110,2974 4129,2972 4150,2971 4173,2969 4199,2967 4228,2964 4259,2961 4293,2957 4329,2953 4366,2949 4404,2945 4441,2941 4476,2937 4507,2933 4532,2930 4551,2928 4564,2926 4572,2925 4575,2925 " />
  <polyline
     id="polyline96"
     style="fill:none;stroke:#000000;stroke-width:15;stroke-linecap:butt;stroke-linejoin:bevel;stroke-dasharray:60, 60"
     points="7200,2925 7201,2925 7204,2926 7212,2927 7227,2929 7248,2933 7275,2938 7307,2944 7342,2950 7378,2957 7414,2964 7448,2971 7479,2979 7508,2986 7534,2993 7557,3000 7577,3007 7595,3014 7611,3021 7625,3029 7638,3038 7652,3049 7664,3061 7675,3075 7684,3090 7692,3108 7699,3128 7705,3151 7710,3176 7714,3202 7718,3228 7721,3252 7723,3272 7724,3287 7725,3296 7725,3299 7725,3300 " />
  <text
     style="font-size:144px;font-style:normal;font-weight:normal;text-anchor:start;fill:#000000;stroke-width:0.025in;font-family:Times"
     id="text100"
     font-size="144"
     font-weight="normal"
     font-style="normal"
     y="4026.1187"
     x="5461.1865"
     xml:space="preserve" />
  <polygon
     id="polygon102"
     style="fill:#ffffff;stroke:#000000;stroke-width:15;stroke-linecap:butt;stroke-linejoin:miter"
     points="5775,3150 6000,2700 4725,2700 4725,2700 4425,3150 " />
  <rect
     id="rect104"
     style="fill:#848284;stroke:#000000;stroke-width:0;stroke-linecap:butt;stroke-linejoin:bevel"
     rx="0"
     height="27"
     width="1350"
     y="3225"
     x="1275" />
  <polygon
     id="polygon106"
     style="fill:#bdbebd;stroke:#000000;stroke-width:0;stroke-linecap:butt;stroke-linejoin:bevel"
     points="1500,3225 1531,3150 1479,3150 1509,3075 1461,3075 1500,3000 1397,3000 1397,3000 1275,3225 " />
  <polygon
     id="polygon108"
     style="fill:#bdbebd;stroke:#000000;stroke-width:0;stroke-linecap:butt;stroke-linejoin:bevel"
     points="2400,3149 2449,3150 2441,3075 2475,3075 2486,3075 2471,3000 2564,3000 2625,3225 2625,3225 2400,3225 " />
  <polygon
     id="polygon110"
     style="fill:#ffffff;stroke:#000000;stroke-width:0;stroke-linecap:butt;stroke-linejoin:bevel"
     points="2700,3225 3075,3225 2925,3000 2925,3000 2625,3000 " />
  <polygon
     id="polygon112"
     style="fill:#bdbebd;stroke:#000000;stroke-width:0;stroke-linecap:butt;stroke-linejoin:bevel"
     points="2925,3045 2639,3045 2624,3000 2956,3000 3075,3225 3075,3225 3006,3225 " />
  <rect
     id="rect114"
     style="fill:#848284;stroke:#000000;stroke-width:0;stroke-linecap:butt;stroke-linejoin:bevel"
     rx="0"
     height="26"
     width="375"
     y="3225"
     x="2700" />
  <polygon
     id="polygon116"
     style="fill:#848284;stroke:#000000;stroke-width:0;stroke-linecap:butt;stroke-linejoin:bevel"
     points="2623,3022 2624,3001 2700,3226 2700,3226 2699,3253 " />
  <rect
     id="rect118"
     style="fill:#87cfff;stroke:#000000;stroke-width:0;stroke-linecap:butt;stroke-linejoin:miter"
     rx="0"
     height="1200"
     width="1350"
     y="1425"
     x="1500" />
  <polygon
     id="polygon120"
     style="fill:#ffffff;stroke:#000000;stroke-width:0;stroke-linecap:butt;stroke-linejoin:bevel"
     points="1504,2550 1509,2551 1516,2551 1526,2552 1540,2553 1556,2555 1576,2556 1597,2558 1621,2559 1648,2561 1675,2563 1705,2565 1735,2567 1767,2569 1800,2570 1835,2572 1872,2574 1910,2575 1951,2576 1994,2578 2040,2579 2088,2579 2138,2580 2190,2580 2246,2580 2300,2579 2351,2578 2398,2577 2443,2576 2484,2574 2523,2573 2559,2571 2594,2569 2627,2567 2658,2565 2688,2563 2716,2561 2742,2559 2766,2557 2787,2555 2805,2554 2820,2553 2832,2552 2840,2551 2846,2550 2849,2550 2850,2550 2851,2551 2854,2554 2861,2561 2873,2573 2888,2588 2902,2602 2914,2614 2921,2621 2924,2624 2925,2625 2923,2625 2920,2625 2913,2625 2902,2625 2886,2625 2865,2625 2838,2625 2805,2625 2766,2625 2720,2625 2668,2625 2611,2625 2547,2625 2479,2625 2407,2625 2331,2625 2254,2625 2175,2625 2096,2625 2019,2625 1943,2625 1871,2625 1803,2625 1739,2625 1682,2625 1630,2625 1584,2625 1545,2625 1512,2625 1485,2625 1464,2625 1448,2625 1437,2625 1430,2625 1427,2625 1425,2625 1426,2624 1429,2621 1436,2614 1448,2602 1463,2587 1477,2573 1489,2561 1496,2554 1499,2551 1500,2550 1500,2550 1501,2550 " />
  <polygon
     id="polygon122"
     style="fill:#bdbebd;stroke:#000000;stroke-width:0;stroke-linecap:butt;stroke-linejoin:bevel"
     points="2921,2621 2914,2614 2902,2602 2887,2587 2873,2573 2861,2561 2854,2554 2851,2551 2850,2550 2850,2548 2850,2544 2850,2536 2850,2524 2850,2506 2850,2482 2850,2453 2850,2417 2850,2375 2850,2327 2850,2274 2850,2216 2850,2155 2850,2090 2850,2025 2850,1960 2850,1895 2850,1834 2850,1776 2850,1723 2850,1675 2850,1633 2850,1597 2850,1568 2850,1544 2850,1526 2850,1514 2850,1506 2850,1502 2850,1500 2851,1499 2854,1496 2861,1489 2873,1477 2888,1462 2902,1448 2914,1436 2921,1429 2924,1426 2925,1425 2925,1427 2925,1431 2925,1439 2925,1450 2925,1468 2925,1490 2925,1519 2925,1554 2925,1596 2925,1643 2925,1697 2925,1756 2925,1819 2925,1885 2925,1955 2925,2025 2925,2095 2925,2165 2925,2231 2925,2294 2925,2353 2925,2407 2925,2454 2925,2496 2925,2531 2925,2560 2925,2582 2925,2600 2925,2611 2925,2619 2925,2623 2925,2625 2925,2625 2924,2624 " />
  <polygon
     id="polygon124"
     style="fill:#848284;stroke:#000000;stroke-width:0;stroke-linecap:butt;stroke-linejoin:bevel"
     points="1504,1500 1509,1499 1516,1499 1526,1498 1540,1497 1556,1495 1576,1494 1597,1492 1621,1491 1648,1489 1675,1487 1705,1485 1735,1483 1767,1481 1800,1480 1835,1478 1872,1476 1910,1475 1951,1474 1994,1472 2040,1471 2088,1471 2138,1470 2190,1470 2246,1470 2300,1471 2351,1472 2398,1473 2443,1474 2484,1476 2523,1477 2559,1479 2594,1481 2627,1483 2658,1485 2688,1487 2716,1489 2742,1491 2766,1493 2787,1495 2805,1496 2820,1497 2832,1498 2840,1499 2846,1500 2849,1500 2850,1500 2851,1499 2854,1496 2861,1489 2873,1477 2888,1462 2902,1448 2914,1436 2921,1429 2924,1426 2925,1425 2923,1425 2920,1425 2913,1425 2902,1425 2886,1425 2865,1425 2838,1425 2805,1425 2766,1425 2720,1425 2668,1425 2611,1425 2547,1425 2479,1425 2407,1425 2331,1425 2254,1425 2175,1425 2096,1425 2019,1425 1943,1425 1871,1425 1803,1425 1739,1425 1682,1425 1630,1425 1584,1425 1545,1425 1512,1425 1485,1425 1464,1425 1448,1425 1437,1425 1430,1425 1427,1425 1425,1425 1426,1426 1429,1429 1436,1436 1448,1448 1463,1463 1477,1477 1489,1489 1496,1496 1499,1499 1500,1500 1500,1500 1501,1500 " />
  <polygon
     id="polygon126"
     style="fill:#bdbebd;stroke:#000000;stroke-width:0;stroke-linecap:butt;stroke-linejoin:bevel"
     points="1429,2621 1436,2614 1448,2602 1463,2587 1477,2573 1489,2561 1496,2554 1499,2551 1500,2550 1500,2548 1500,2544 1500,2536 1500,2524 1500,2506 1500,2482 1500,2453 1500,2417 1500,2375 1500,2327 1500,2274 1500,2216 1500,2155 1500,2090 1500,2025 1500,1960 1500,1895 1500,1834 1500,1776 1500,1723 1500,1675 1500,1633 1500,1597 1500,1568 1500,1544 1500,1526 1500,1514 1500,1506 1500,1502 1500,1500 1499,1499 1496,1496 1489,1489 1477,1477 1462,1462 1448,1448 1436,1436 1429,1429 1426,1426 1425,1425 1425,1427 1425,1431 1425,1439 1425,1450 1425,1468 1425,1490 1425,1519 1425,1554 1425,1596 1425,1643 1425,1697 1425,1756 1425,1819 1425,1885 1425,1955 1425,2025 1425,2095 1425,2165 1425,2231 1425,2294 1425,2353 1425,2407 1425,2454 1425,2496 1425,2531 1425,2560 1425,2582 1425,2600 1425,2611 1425,2619 1425,2623 1425,2625 1425,2625 1426,2624 " />
  <text
     style="font-size:288px;font-style:normal;font-weight:bold;text-anchor:start;fill:#0000ff;stroke-width:0.025in;font-family:Helvetica"
     id="text128"
     font-size="288"
     font-weight="bold"
     font-style="normal"
     y="1875"
     x="1500"
     xml:space="preserve">arm-linux-gcc</text>
  <text
     xml:space="preserve"
     style="font-size:531.63397217px;font-style:normal;font-variant:normal;font-weight:500;font-stretch:normal;line-height:125%;letter-spacing:0px;word-spacing:0px;fill:#000000;fill-opacity:1;stroke:none;font-family:URW Palladio L;-inkscape-font-specification:URW Palladio L Medium"
     x="4752.6479"
     y="3849.6707"
     id="text3173"
     sodipodi:linespacing="125%"><tspan
       sodipodi:role="line"
       id="tspan3175"
       x="4752.6479"
       y="3849.6707"
       style="font-size:239.23530579px">仿真器</tspan><tspan
       sodipodi:role="line"
       x="4752.6479"
       y="4127.0532"
       style="font-size:239.23530579px"
       id="tspan3179">(JTAG)</tspan><tspan
       sodipodi:role="line"
       x="4752.6479"
       y="4426.0972"
       id="tspan3177" /></text>
  <text
     xml:space="preserve"
     style="font-size:318.98040771px;font-style:normal;font-variant:normal;font-weight:500;font-stretch:normal;line-height:125%;letter-spacing:0px;word-spacing:0px;fill:#000000;fill-opacity:1;stroke:none;font-family:URW Palladio L;-inkscape-font-specification:URW Palladio L Medium"
     x="8279.835"
     y="4330.186"
     id="text3181"
     sodipodi:linespacing="125%"><tspan
       sodipodi:role="line"
       id="tspan3183"
       x="8279.835"
       y="4330.186">产品</tspan></text>
</svg>
