<?xml version="1.0" encoding="UTF-8" standalone="no"?>
<!-- Created with Inkscape (http://www.inkscape.org/) -->

<svg
   xmlns:dc="http://purl.org/dc/elements/1.1/"
   xmlns:cc="http://creativecommons.org/ns#"
   xmlns:rdf="http://www.w3.org/1999/02/22-rdf-syntax-ns#"
   xmlns:svg="http://www.w3.org/2000/svg"
   xmlns="http://www.w3.org/2000/svg"
   xmlns:sodipodi="http://sodipodi.sourceforge.net/DTD/sodipodi-0.dtd"
   xmlns:inkscape="http://www.inkscape.org/namespaces/inkscape"
   width="744.09448819"
   height="1052.3622047"
   id="svg2"
   version="1.1"
   inkscape:version="0.48.4 r9939"
   sodipodi:docname="server.svg">
  <defs
     id="defs4" />
  <sodipodi:namedview
     id="base"
     pagecolor="#ffffff"
     bordercolor="#666666"
     borderopacity="1.0"
     inkscape:pageopacity="0.0"
     inkscape:pageshadow="2"
     inkscape:zoom="0.82"
     inkscape:cx="423.78049"
     inkscape:cy="611.84669"
     inkscape:document-units="px"
     inkscape:current-layer="layer1"
     showgrid="false"
     inkscape:window-width="946"
     inkscape:window-height="704"
     inkscape:window-x="97"
     inkscape:window-y="-12"
     inkscape:window-maximized="0" />
  <metadata
     id="metadata7">
    <rdf:RDF>
      <cc:Work
         rdf:about="">
        <dc:format>image/svg+xml</dc:format>
        <dc:type
           rdf:resource="http://purl.org/dc/dcmitype/StillImage" />
        <dc:title />
      </cc:Work>
    </rdf:RDF>
  </metadata>
  <g
     inkscape:label="Layer 1"
     inkscape:groupmode="layer"
     id="layer1">
    <ellipse
       d="M 24,0 C 24,20.434536 13.254834,37 0,37 -13.254834,37 -24,20.434536 -24,0 c 0,-20.434536 10.745166,-37 24,-37 13.254834,0 24,16.565464 24,37 z"
       sodipodi:ry="37"
       sodipodi:rx="24"
       sodipodi:cy="0"
       sodipodi:cx="0"
       cy="0"
       cx="0"
       transform="matrix(0.07480376,0,0,0.07480376,771.86114,420.9072)"
       rx="24"
       ry="37"
       style="fill:none;stroke:#000000;stroke-width:8"
       id="ellipse3024" />
    <ellipse
       d="M 45,0 C 45,39.212217 24.852814,71 0,71 -24.852814,71 -45,39.212217 -45,0 c 0,-39.212217 20.147186,-71 45,-71 24.852814,0 45,31.787783 45,71 z"
       sodipodi:ry="71"
       sodipodi:rx="45"
       sodipodi:cy="0"
       sodipodi:cx="0"
       cy="0"
       cx="0"
       transform="matrix(0.07480376,0,0,0.07480376,771.41231,437.36403)"
       rx="45"
       ry="71"
       style="fill:none;stroke:#000000;stroke-width:8"
       id="ellipse3026" />
    <ellipse
       d="M 14,0 C 14,12.150264 7.7319865,22 0,22 -7.7319865,22 -14,12.150264 -14,0 c 0,-12.150264 6.2680135,-22 14,-22 7.7319865,0 14,9.849736 14,22 z"
       sodipodi:ry="22"
       sodipodi:rx="14"
       sodipodi:cy="0"
       sodipodi:cx="0"
       cy="0"
       cx="0"
       transform="matrix(0.07480376,0,0,0.07480376,751.3649,469.75405)"
       rx="14"
       ry="22"
       style="fill:none;stroke:#000000;stroke-width:8"
       id="ellipse3028" />
    <ellipse
       d="M 14,0 C 14,12.150264 7.7319865,22 0,22 -7.7319865,22 -14,12.150264 -14,0 c 0,-12.150264 6.2680135,-22 14,-22 7.7319865,0 14,9.849736 14,22 z"
       sodipodi:ry="22"
       sodipodi:rx="14"
       sodipodi:cy="0"
       sodipodi:cx="0"
       cy="0"
       cx="0"
       transform="matrix(0.07480376,0,0,0.07480376,751.06569,479.85256)"
       rx="14"
       ry="22"
       style="fill:none;stroke:#000000;stroke-width:8"
       id="ellipse3030" />
    <polyline
       points="15792,-240 15792,-46 15908,-35 15904,-240 15785,-250 "
       style="fill:none;stroke:#000000;stroke-width:8;stroke-linecap:butt;stroke-linejoin:miter"
       id="polyline3032"
       transform="matrix(0.07480376,0,0,0.07480376,-434.64871,570.73913)" />
    <polyline
       points="15507,-3320 15507,-2970 16241,-2929 16236,-3285 15507,-3320 "
       style="fill:none;stroke:#000000;stroke-width:8;stroke-linecap:butt;stroke-linejoin:miter"
       id="polyline3034"
       transform="matrix(0.07480376,0,0,0.07480376,-434.64871,570.73913)" />
    <polyline
       points="15507,-2966 15510,-2617 16245,-2555 16242,-2929 "
       style="fill:none;stroke:#000000;stroke-width:8;stroke-linecap:butt;stroke-linejoin:miter"
       id="polyline3036"
       transform="matrix(0.07480376,0,0,0.07480376,-434.64871,570.73913)" />
    <polyline
       points="15514,-2605 15514,-2264 16250,-2198 16245,-2548 "
       style="fill:none;stroke:#000000;stroke-width:8;stroke-linecap:butt;stroke-linejoin:miter"
       id="polyline3038"
       transform="matrix(0.07480376,0,0,0.07480376,-434.64871,570.73913)" />
    <polyline
       points="15520,-2182 15520,-1971 16010,-1919 16012,-2144 15518,-2186 "
       style="fill:none;stroke:#000000;stroke-width:8;stroke-linecap:butt;stroke-linejoin:miter"
       id="polyline3040"
       transform="matrix(0.07480376,0,0,0.07480376,-434.64871,570.73913)" />
    <polyline
       points="15522,-1971 15520,-1752 16008,-1691 16010,-1922 "
       style="fill:none;stroke:#000000;stroke-width:8;stroke-linecap:butt;stroke-linejoin:miter"
       id="polyline3042"
       transform="matrix(0.07480376,0,0,0.07480376,-434.64871,570.73913)" />
    <polyline
       points="15419,-3370 15419,-3367 15419,-3363 15419,-3356 15419,-3343 15419,-3325 15419,-3301 15419,-3271 15420,-3235 15420,-3192 15420,-3143 15420,-3088 15421,-3027 15421,-2963 15421,-2895 15421,-2825 15422,-2751 15422,-2678 15422,-2603 15423,-2529 15423,-2455 15423,-2384 15424,-2313 15424,-2245 15424,-2179 15425,-2115 15425,-2054 15425,-1995 15425,-1940 15426,-1885 15426,-1834 15426,-1784 15426,-1737 15427,-1692 15427,-1648 15427,-1606 15427,-1565 15427,-1525 15427,-1487 15428,-1449 15428,-1413 15428,-1376 15428,-1329 15428,-1282 15428,-1237 15429,-1192 15429,-1148 15429,-1103 15429,-1059 15429,-1016 15429,-972 15429,-930 15430,-887 15430,-845 15430,-804 15430,-764 15430,-724 15430,-686 15430,-648 15430,-612 15432,-577 15432,-543 15432,-511 15432,-480 15432,-451 15432,-423 15432,-396 15432,-371 15432,-348 15432,-325 15432,-304 15432,-284 15432,-265 15433,-248 15433,-211 15433,-177 15433,-148 15433,-121 15433,-98 15433,-78 15433,-61 15433,-47 15434,-36 15434,-28 15434,-20 15434,-16 15435,-12 15435,-10 15436,-6 15437,-2 15438,1 15439,3 15441,5 15443,7 15444,8 15446,8 15449,9 15454,10 15458,10 15462,10 15467,10 15472,10 15478,10 15484,10 15489,10 15495,10 15496,10 15497,9 15498,8 15500,6 15501,2 15502,-5 15503,-14 15504,-27 15505,-41 15506,-61 15507,-83 15508,-111 15509,-141 15510,-176 15510,-215 15511,-258 15511,-281 15511,-304 15512,-329 15512,-356 15512,-386 15512,-417 15512,-451 15513,-487 15513,-527 15513,-567 15513,-613 15513,-661 15514,-712 15514,-766 15514,-824 15514,-883 15514,-945 15516,-1009 15516,-1075 15516,-1141 15516,-1205 15516,-1268 15516,-1328 15516,-1383 15517,-1434 15517,-1477 15517,-1514 15517,-1545 15517,-1568 15517,-1584 15517,-1594 15517,-1601 15517,-1603 "
       style="fill:none;stroke:#000000;stroke-width:8;stroke-linecap:butt;stroke-linejoin:bevel"
       id="polyline3044"
       transform="matrix(0.07480376,0,0,0.07480376,-434.64871,570.73913)" />
    <polyline
       points="15517,15 15517,16 15517,19 15517,24 15517,28 15517,31 15517,34 15518,37 15521,41 15525,46 15533,51 15544,56 15552,59 15563,64 15574,68 15588,72 15604,77 15620,82 15637,88 15654,92 15671,97 15688,101 15701,106 15716,109 15732,113 15748,116 15765,120 15782,124 15800,129 15817,132 15834,136 15850,139 15866,142 15881,145 15896,149 15911,151 15927,154 15944,157 15960,160 15976,162 15992,165 16008,167 16023,171 16035,173 16048,175 16059,176 16072,178 16083,180 16096,182 16108,184 16119,185 16130,187 16140,188 16150,191 16159,192 16167,193 16178,194 16188,194 16200,195 16212,195 16222,195 16230,194 16238,193 16244,191 16247,188 16250,186 16253,183 16255,179 16256,175 16256,171 16256,166 16256,162 16256,158 16255,154 16255,146 16254,138 16253,130 16251,121 16251,113 16250,106 16250,101 16250,96 16249,91 16249,83 16249,75 16248,64 16248,50 16248,34 16247,16 16247,-5 16246,-28 16246,-55 16246,-71 16245,-89 16245,-108 16245,-129 16245,-151 16244,-174 16244,-198 16244,-224 16243,-251 16243,-280 16243,-309 16242,-339 16242,-369 16242,-398 16241,-429 16241,-459 16241,-489 16241,-517 16240,-545 16240,-574 16240,-601 16240,-628 16240,-653 16240,-678 16240,-702 16240,-727 16240,-753 16240,-780 16240,-806 16240,-833 16240,-860 16240,-889 16240,-917 16240,-945 16240,-974 16240,-1002 16240,-1032 16241,-1060 16241,-1088 16241,-1116 16241,-1143 16242,-1171 16242,-1197 16242,-1225 16242,-1252 16243,-1278 16243,-1303 16243,-1330 16244,-1356 16244,-1383 16244,-1413 16245,-1443 16245,-1475 16246,-1509 16246,-1546 16247,-1585 16247,-1626 16248,-1669 16249,-1714 16249,-1760 16250,-1807 16251,-1854 16251,-1898 16253,-1939 16254,-1975 16254,-2006 16254,-2030 16255,-2048 16255,-2059 16255,-2066 16255,-2069 "
       style="fill:none;stroke:#000000;stroke-width:8;stroke-linecap:butt;stroke-linejoin:bevel"
       id="polyline3046"
       transform="matrix(0.07480376,0,0,0.07480376,-434.64871,570.73913)" />
    <polyline
       points="16257,204 16258,203 16260,200 16263,196 16265,193 16267,191 16269,187 16272,185 16275,183 16277,181 16279,178 16280,178 16280,176 16280,174 16281,170 16281,164 16282,155 16282,143 16282,128 16282,109 16283,86 16283,57 16283,25 16282,-10 16282,-52 16282,-98 16282,-150 16281,-174 16281,-199 16281,-225 16281,-254 16280,-284 16280,-316 16280,-349 16279,-386 16279,-425 16279,-466 16278,-510 16278,-557 16277,-606 16277,-659 16276,-714 16275,-773 16275,-835 16274,-898 16272,-964 16272,-1033 16271,-1101 16270,-1170 16269,-1239 16269,-1307 16268,-1372 16267,-1434 16267,-1491 16266,-1544 16266,-1590 16265,-1631 16265,-1664 16265,-1691 16264,-1711 16264,-1725 16264,-1734 16264,-1739 16264,-1741 "
       style="fill:none;stroke:#000000;stroke-width:8;stroke-linecap:butt;stroke-linejoin:bevel"
       id="polyline3048"
       transform="matrix(0.07480376,0,0,0.07480376,-434.64871,570.73913)" />
    <polyline
       points="16289,174 16291,174 16301,175 16314,176 16327,177 16338,177 16346,177 16353,177 16362,177 16370,176 16377,176 16384,175 16389,175 16390,175 16392,174 16393,173 16395,170 16396,164 16397,157 16398,148 16401,134 16402,117 16402,96 16403,71 16404,41 16404,7 16405,-31 16405,-74 16405,-122 16406,-176 16406,-236 16405,-265 16405,-296 16405,-327 16405,-361 16405,-395 16405,-431 16405,-470 16405,-509 16404,-550 16404,-592 16404,-636 16404,-681 16403,-727 16403,-775 16403,-824 16402,-874 16402,-924 16402,-976 16401,-1027 16401,-1080 16400,-1132 16400,-1186 16400,-1238 16398,-1291 16398,-1344 16397,-1396 16397,-1448 16397,-1499 16396,-1549 16396,-1598 16395,-1648 16395,-1695 16394,-1742 16394,-1788 16394,-1833 16393,-1877 16393,-1920 16393,-1961 16392,-2002 16392,-2041 16391,-2094 16391,-2144 16390,-2194 16390,-2243 16390,-2290 16389,-2338 16389,-2384 16388,-2430 16388,-2475 16387,-2518 16387,-2562 16387,-2604 16386,-2644 16386,-2684 16385,-2723 16385,-2760 16385,-2795 16384,-2829 16384,-2861 16384,-2892 16383,-2920 16383,-2948 16383,-2974 16383,-2998 16382,-3020 16382,-3041 16382,-3061 16382,-3079 16382,-3096 16381,-3112 16381,-3149 16380,-3181 16380,-3208 16380,-3232 16379,-3252 16379,-3268 16379,-3280 16377,-3291 16377,-3297 16377,-3302 16376,-3306 16376,-3308 16374,-3313 16373,-3318 16371,-3322 16369,-3325 16367,-3328 16365,-3330 16363,-3331 16358,-3332 16350,-3334 16339,-3335 16324,-3337 16304,-3338 16280,-3339 16266,-3339 16253,-3340 16237,-3340 16220,-3341 16201,-3341 16181,-3342 16160,-3342 16138,-3343 16115,-3344 16092,-3344 16068,-3345 16044,-3345 16020,-3346 15997,-3348 15975,-3348 15953,-3349 15931,-3350 15911,-3350 15888,-3351 15865,-3352 15842,-3352 15819,-3353 15796,-3354 15772,-3355 15749,-3356 15727,-3357 15704,-3358 15683,-3359 15664,-3360 15645,-3361 15628,-3362 15611,-3362 15596,-3363 15583,-3364 15565,-3365 15548,-3366 15532,-3367 15516,-3369 15499,-3370 15481,-3371 15462,-3372 15445,-3373 15432,-3374 15423,-3375 15420,-3375 15419,-3375 "
       style="fill:none;stroke:#000000;stroke-width:8;stroke-linecap:butt;stroke-linejoin:bevel"
       id="polyline3050"
       transform="matrix(0.07480376,0,0,0.07480376,-434.64871,570.73913)" />
    <polyline
       points="16406,174 16407,174 16408,173 16410,172 16411,171 16413,169 16416,165 16419,161 16423,157 16427,152 16430,146 16434,141 16438,135 16443,130 16446,125 16448,121 16449,117 16451,111 16452,102 16452,92 16453,78 16453,72 16453,65 16452,56 16452,46 16452,34 16452,19 16451,3 16451,-15 16451,-36 16450,-60 16450,-87 16449,-115 16449,-146 16448,-180 16448,-216 16447,-255 16447,-277 16447,-301 16446,-325 16446,-350 16446,-377 16445,-406 16445,-436 16445,-468 16444,-500 16444,-534 16444,-569 16443,-604 16443,-642 16441,-680 16441,-718 16441,-758 16440,-796 16440,-836 16439,-876 16439,-916 16439,-956 16438,-995 16438,-1035 16438,-1072 16437,-1111 16437,-1149 16436,-1186 16436,-1223 16436,-1259 16436,-1295 16435,-1330 16435,-1363 16435,-1397 16434,-1432 16434,-1466 16434,-1502 16433,-1538 16433,-1573 16433,-1609 16432,-1646 16432,-1682 16432,-1720 16432,-1758 16431,-1795 16431,-1833 16431,-1870 16430,-1907 16430,-1944 16430,-1981 16429,-2016 16429,-2052 16429,-2087 16428,-2120 16428,-2154 16428,-2186 16428,-2218 16427,-2249 16427,-2280 16427,-2309 16427,-2339 16426,-2367 16426,-2395 16426,-2430 16425,-2465 16425,-2498 16425,-2533 16424,-2566 16424,-2601 16424,-2635 16423,-2669 16423,-2703 16423,-2737 16422,-2770 16422,-2803 16422,-2834 16420,-2866 16420,-2896 16420,-2924 16419,-2953 16419,-2979 16419,-3004 16419,-3027 16418,-3049 16418,-3070 16418,-3090 16418,-3108 16418,-3125 16418,-3141 16417,-3171 16417,-3198 16417,-3222 16416,-3241 16416,-3258 16416,-3272 16416,-3283 16416,-3292 16415,-3298 16415,-3302 16415,-3306 16415,-3309 16414,-3315 16413,-3322 16412,-3330 16411,-3336 16410,-3341 16409,-3345 16408,-3350 16407,-3353 16406,-3356 16405,-3358 16404,-3359 16402,-3360 16397,-3361 16391,-3362 16381,-3363 16366,-3364 16346,-3366 16322,-3367 16292,-3370 16258,-3372 16240,-3373 16220,-3374 16198,-3376 16176,-3377 16151,-3378 16125,-3380 16098,-3381 16070,-3383 16040,-3384 16010,-3386 15980,-3388 15950,-3390 15920,-3392 15890,-3393 15862,-3395 15835,-3396 15808,-3398 15783,-3399 15760,-3400 15738,-3402 15718,-3403 15699,-3404 15669,-3405 15641,-3407 15618,-3408 15597,-3411 15581,-3412 15566,-3413 15555,-3413 15546,-3414 15540,-3415 15534,-3415 15530,-3416 15526,-3416 15519,-3417 15510,-3418 15501,-3418 15492,-3419 15486,-3419 15481,-3419 15476,-3419 15472,-3418 15469,-3417 15467,-3416 "
       style="fill:none;stroke:#000000;stroke-width:8;stroke-linecap:butt;stroke-linejoin:bevel"
       id="polyline3052"
       transform="matrix(0.07480376,0,0,0.07480376,-434.64871,570.73913)" />
    <polyline
       points="15413,-3380 15414,-3380 15417,-3382 15426,-3387 15442,-3395 15462,-3404 15485,-3416 15509,-3428 15532,-3440 15554,-3450 15574,-3461 15593,-3470 15612,-3479 15630,-3487 15649,-3496 15665,-3504 15682,-3511 15700,-3520 15719,-3529 15739,-3538 15760,-3547 15781,-3556 15802,-3566 15823,-3575 15843,-3585 15863,-3593 15882,-3602 15900,-3610 15917,-3617 15932,-3625 15948,-3631 15964,-3638 15980,-3646 15995,-3652 16011,-3658 16028,-3665 16045,-3671 16062,-3676 16080,-3681 16099,-3686 16118,-3690 16138,-3693 16159,-3696 16181,-3698 16204,-3700 16221,-3701 16240,-3702 16259,-3703 16280,-3704 16302,-3704 16324,-3706 16348,-3706 16373,-3706 16398,-3706 16424,-3706 16449,-3706 16475,-3706 16499,-3706 16523,-3706 16548,-3704 16570,-3704 16592,-3703 16612,-3703 16630,-3702 16649,-3702 16674,-3701 16697,-3701 16719,-3700 16741,-3699 16761,-3699 16780,-3698 16797,-3697 16814,-3697 16829,-3696 16841,-3696 16853,-3695 16862,-3695 16872,-3695 16879,-3695 16894,-3694 16906,-3694 16915,-3694 16921,-3694 16925,-3693 16928,-3692 16931,-3690 16933,-3686 16934,-3681 16936,-3676 16937,-3671 16937,-3667 16938,-3661 16939,-3654 16939,-3647 16940,-3637 16941,-3626 16941,-3623 16941,-3618 16941,-3614 16941,-3609 16942,-3602 16942,-3593 16942,-3583 16942,-3571 16943,-3556 16943,-3539 16943,-3519 16944,-3496 16944,-3469 16944,-3441 16945,-3408 16945,-3374 16945,-3335 16946,-3294 16946,-3249 16946,-3201 16948,-3149 16948,-3092 16948,-3060 16948,-3025 16949,-2990 16949,-2953 16949,-2914 16949,-2874 16950,-2832 16950,-2788 16950,-2744 16950,-2698 16951,-2650 16951,-2601 16951,-2552 16951,-2500 16952,-2449 16952,-2396 16952,-2343 16952,-2289 16953,-2236 16953,-2181 16953,-2128 16953,-2073 16954,-2019 16954,-1967 16954,-1914 16954,-1863 16955,-1812 16955,-1762 16955,-1714 16955,-1667 16955,-1620 16956,-1576 16956,-1533 16956,-1491 16956,-1451 16956,-1414 16957,-1376 16957,-1341 16957,-1307 16957,-1275 16957,-1219 16957,-1168 16958,-1121 16958,-1078 16958,-1037 16958,-1000 16958,-965 16958,-935 16958,-908 16958,-882 16958,-860 16958,-841 16958,-826 16958,-812 16958,-801 16957,-791 16957,-784 16957,-779 16956,-773 16956,-770 16955,-767 16955,-764 16954,-758 16952,-751 16950,-745 16945,-737 16941,-726 16935,-714 16928,-701 16918,-685 16908,-667 16896,-647 16890,-636 16882,-623 16875,-609 16867,-595 16857,-579 16848,-562 16837,-544 16827,-525 16816,-507 16805,-486 16792,-466 16781,-445 16768,-424 16756,-403 16744,-382 16732,-361 16721,-341 16709,-321 16699,-302 16687,-283 16677,-264 16665,-245 16655,-225 16643,-205 16630,-184 16617,-161 16603,-137 16588,-111 16573,-83 16556,-55 16538,-25 16521,4 16504,32 16490,58 16477,79 16468,96 16460,108 16457,114 16455,117 "
       style="fill:none;stroke:#000000;stroke-width:8;stroke-linecap:butt;stroke-linejoin:bevel"
       id="polyline3054"
       transform="matrix(0.07480376,0,0,0.07480376,-434.64871,570.73913)" />
    <polyline
       points="16423,-3252 16943,-3601 "
       style="fill:none;stroke:#000000;stroke-width:8;stroke-linecap:butt;stroke-linejoin:bevel"
       id="polyline3056"
       transform="matrix(0.07480376,0,0,0.07480376,-434.64871,570.73913)" />
    <polygon
       points="10043,-180 11007,-681 11018,-666 11101,-707 11463,-332 11463,-319 10451,251 10386,278 10358,278 10358,278 10293,208 10191,82 10109,-41 10043,-137 "
       style="fill:none;stroke:#000000;stroke-width:8;stroke-linecap:butt;stroke-linejoin:miter"
       id="polygon3058"
       transform="matrix(0.07480376,0,0,0.07480376,-434.64871,570.73913)" />
    <polygon
       points="11128,-681 11072,-651 11361,-341 11425,-374 11128,-681 "
       style="fill:#ffffff;stroke:#000000;stroke-width:8;stroke-linecap:butt;stroke-linejoin:miter"
       id="polygon3060"
       transform="matrix(0.07480376,0,0,0.07480376,-434.64871,570.73913)" />
    <g
       style="fill:none;stroke:#000000;stroke-width:1"
       id="g3062"
       transform="matrix(0.07480376,0,0,0.07480376,-700.363,336.45342)">
      <defs
         id="defs3064">
        <pattern
           id="tile1"
           x="0"
           y="0"
           width="200"
           height="200"
           patternUnits="userSpaceOnUse">
          <path
             d="M 0 -100 200 20"
             id="path3067" />
          <path
             d="M 200 -100 0 20"
             id="path3069" />
          <path
             d="M 0 -60 200 60"
             id="path3071" />
          <path
             d="M 200 -60 0 60"
             id="path3073" />
          <path
             d="M 0 -20 200 100"
             id="path3075" />
          <path
             d="M 200 -20 0 100"
             id="path3077" />
          <path
             d="M 0 20 200 140"
             id="path3079" />
          <path
             d="M 200 20 0 140"
             id="path3081" />
          <path
             d="M 0 60 200 180"
             id="path3083" />
          <path
             d="M 200 60 0 180"
             id="path3085" />
          <path
             d="M 0 100 200 220"
             id="path3087" />
          <path
             d="M 200 100 0 220"
             id="path3089" />
          <path
             d="M 0 140 200 260"
             id="path3091" />
          <path
             d="M 200 140 0 260"
             id="path3093" />
          <path
             d="M 0 180 200 300"
             id="path3095" />
          <path
             d="M 200 180 0 300"
             id="path3097" />
        </pattern>
      </defs>
    </g>
    <polygon
       points="11128,-681 11072,-651 11361,-341 11425,-374 11128,-681 "
       style="fill:url(#tile1);stroke:#000000;stroke-width:8;stroke-linecap:butt;stroke-linejoin:miter"
       id="polygon3099"
       transform="matrix(0.07480376,0,0,0.07480376,-434.64871,570.73913)" />
    <polygon
       points="11007,-611 10988,-611 10460,-332 10451,-319 10451,-319 10692,-27 10729,-27 11277,-319 11277,-332 "
       style="fill:none;stroke:#000000;stroke-width:8;stroke-linecap:butt;stroke-linejoin:miter"
       id="polygon3101"
       transform="matrix(0.07480376,0,0,0.07480376,-434.64871,570.73913)" />
    <polyline
       points="10358,-332 10675,40 10675,55 10637,69 10654,97 10377,251 10377,222 10516,153 "
       style="fill:none;stroke:#000000;stroke-width:8;stroke-linecap:butt;stroke-linejoin:miter"
       id="polyline3103"
       transform="matrix(0.07480376,0,0,0.07480376,-434.64871,570.73913)" />
    <polyline
       points="10683,55 11341,-305 11341,-347 11054,-651 11018,-651 "
       style="fill:none;stroke:#000000;stroke-width:8;stroke-linecap:butt;stroke-linejoin:miter"
       id="polyline3105"
       transform="matrix(0.07480376,0,0,0.07480376,-434.64871,570.73913)" />
    <polyline
       points="10702,69 11341,-279 "
       style="fill:none;stroke:#000000;stroke-width:8;stroke-linecap:butt;stroke-linejoin:miter"
       id="polyline3107"
       transform="matrix(0.07480376,0,0,0.07480376,-434.64871,570.73913)" />
    <polygon
       points="10337,89 10383,143 10392,129 10346,75 10337,89 "
       style="fill:none;stroke:#000000;stroke-width:8;stroke-linecap:butt;stroke-linejoin:miter"
       id="polygon3109"
       transform="matrix(0.07480376,0,0,0.07480376,-434.64871,570.73913)" />
    <polygon
       points="10271,3 10319,59 10328,46 10282,-10 10271,3 "
       style="fill:none;stroke:#000000;stroke-width:8;stroke-linecap:butt;stroke-linejoin:miter"
       id="polygon3111"
       transform="matrix(0.07480376,0,0,0.07480376,-434.64871,570.73913)" />
    <polygon
       points="10198,-93 10244,-37 10254,-52 10207,-107 10198,-93 "
       style="fill:none;stroke:#000000;stroke-width:8;stroke-linecap:butt;stroke-linejoin:miter"
       id="polygon3113"
       transform="matrix(0.07480376,0,0,0.07480376,-434.64871,570.73913)" />
    <polygon
       points="10141,-174 10188,-118 10197,-134 10151,-188 10141,-174 "
       style="fill:none;stroke:#000000;stroke-width:8;stroke-linecap:butt;stroke-linejoin:miter"
       id="polygon3115"
       transform="matrix(0.07480376,0,0,0.07480376,-434.64871,570.73913)" />
    <polyline
       points="10368,195 10368,194 10365,191 10358,182 10346,169 10331,152 10313,131 10297,111 10280,91 10264,73 10250,56 10239,41 10227,29 10218,16 10208,5 10195,-11 10182,-28 10170,-44 10157,-59 10146,-74 10137,-87 10130,-96 10124,-102 10121,-106 10121,-107 10122,-103 10124,-99 10129,-93 10135,-83 10141,-73 10150,-60 10159,-47 10170,-32 10180,-17 10191,-3 10201,11 10212,26 10221,37 10230,50 10241,64 10251,77 10264,93 10278,111 10293,130 10309,149 10324,167 10338,184 10348,197 10354,204 10358,208 "
       style="fill:none;stroke:#000000;stroke-width:8;stroke-linecap:butt;stroke-linejoin:bevel"
       id="polyline3117"
       transform="matrix(0.07480376,0,0,0.07480376,-434.64871,570.73913)" />
    <polygon
       points="10090,-1456 11055,-1956 11065,-1942 11148,-1983 11510,-1608 11510,-1594 10498,-1023 10433,-997 10405,-997 10405,-997 10341,-1066 10238,-1192 10156,-1317 10090,-1413 "
       style="fill:none;stroke:#000000;stroke-width:8;stroke-linecap:butt;stroke-linejoin:miter"
       id="polygon3119"
       transform="matrix(0.07480376,0,0,0.07480376,-434.64871,570.73913)" />
    <polygon
       points="11175,-1956 11120,-1927 11408,-1616 11472,-1650 11175,-1956 "
       style="fill:#ffffff;stroke:#000000;stroke-width:8;stroke-linecap:butt;stroke-linejoin:miter"
       id="polygon3121"
       transform="matrix(0.07480376,0,0,0.07480376,-434.64871,570.73913)" />
    <g
       style="fill:none;stroke:#000000;stroke-width:1"
       id="g3123"
       transform="matrix(0.07480376,0,0,0.07480376,-700.363,336.45342)">
      <defs
         id="defs3125">
        <pattern
           id="tile2"
           x="0"
           y="0"
           width="200"
           height="200"
           patternUnits="userSpaceOnUse">
          <path
             d="M 0 -100 200 20"
             id="path3128" />
          <path
             d="M 200 -100 0 20"
             id="path3130" />
          <path
             d="M 0 -60 200 60"
             id="path3132" />
          <path
             d="M 200 -60 0 60"
             id="path3134" />
          <path
             d="M 0 -20 200 100"
             id="path3136" />
          <path
             d="M 200 -20 0 100"
             id="path3138" />
          <path
             d="M 0 20 200 140"
             id="path3140" />
          <path
             d="M 200 20 0 140"
             id="path3142" />
          <path
             d="M 0 60 200 180"
             id="path3144" />
          <path
             d="M 200 60 0 180"
             id="path3146" />
          <path
             d="M 0 100 200 220"
             id="path3148" />
          <path
             d="M 200 100 0 220"
             id="path3150" />
          <path
             d="M 0 140 200 260"
             id="path3152" />
          <path
             d="M 200 140 0 260"
             id="path3154" />
          <path
             d="M 0 180 200 300"
             id="path3156" />
          <path
             d="M 200 180 0 300"
             id="path3158" />
        </pattern>
      </defs>
    </g>
    <polygon
       points="11175,-1956 11120,-1927 11408,-1616 11472,-1650 11175,-1956 "
       style="fill:url(#tile2);stroke:#000000;stroke-width:8;stroke-linecap:butt;stroke-linejoin:miter"
       id="polygon3160"
       transform="matrix(0.07480376,0,0,0.07480376,-434.64871,570.73913)" />
    <polygon
       points="11055,-1886 11036,-1886 10508,-1608 10498,-1594 10498,-1594 10740,-1302 10776,-1302 11324,-1594 11324,-1608 "
       style="fill:none;stroke:#000000;stroke-width:8;stroke-linecap:butt;stroke-linejoin:miter"
       id="polygon3162"
       transform="matrix(0.07480376,0,0,0.07480376,-434.64871,570.73913)" />
    <polyline
       points="10405,-1608 10722,-1234 10722,-1219 10684,-1206 10701,-1177 10425,-1023 10425,-1053 10563,-1122 "
       style="fill:none;stroke:#000000;stroke-width:8;stroke-linecap:butt;stroke-linejoin:miter"
       id="polyline3164"
       transform="matrix(0.07480376,0,0,0.07480376,-434.64871,570.73913)" />
    <polyline
       points="10730,-1219 11388,-1581 11388,-1623 11101,-1927 11065,-1927 "
       style="fill:none;stroke:#000000;stroke-width:8;stroke-linecap:butt;stroke-linejoin:miter"
       id="polyline3166"
       transform="matrix(0.07480376,0,0,0.07480376,-434.64871,570.73913)" />
    <polyline
       points="10749,-1206 11388,-1554 "
       style="fill:none;stroke:#000000;stroke-width:8;stroke-linecap:butt;stroke-linejoin:miter"
       id="polyline3168"
       transform="matrix(0.07480376,0,0,0.07480376,-434.64871,570.73913)" />
    <polygon
       points="10384,-1186 10430,-1131 10439,-1146 10393,-1200 10384,-1186 "
       style="fill:none;stroke:#000000;stroke-width:8;stroke-linecap:butt;stroke-linejoin:miter"
       id="polygon3170"
       transform="matrix(0.07480376,0,0,0.07480376,-434.64871,570.73913)" />
    <polygon
       points="10319,-1272 10366,-1215 10375,-1229 10329,-1286 10319,-1272 "
       style="fill:none;stroke:#000000;stroke-width:8;stroke-linecap:butt;stroke-linejoin:miter"
       id="polygon3172"
       transform="matrix(0.07480376,0,0,0.07480376,-434.64871,570.73913)" />
    <polygon
       points="10245,-1369 10291,-1313 10301,-1328 10255,-1382 10245,-1369 "
       style="fill:none;stroke:#000000;stroke-width:8;stroke-linecap:butt;stroke-linejoin:miter"
       id="polygon3174"
       transform="matrix(0.07480376,0,0,0.07480376,-434.64871,570.73913)" />
    <polygon
       points="10188,-1449 10236,-1394 10244,-1409 10198,-1464 10188,-1449 "
       style="fill:none;stroke:#000000;stroke-width:8;stroke-linecap:butt;stroke-linejoin:miter"
       id="polygon3176"
       transform="matrix(0.07480376,0,0,0.07480376,-434.64871,570.73913)" />
    <polyline
       points="10415,-1080 10415,-1081 10412,-1084 10405,-1092 10393,-1106 10379,-1123 10361,-1144 10344,-1164 10327,-1184 10311,-1202 10298,-1218 10286,-1233 10275,-1246 10265,-1258 10256,-1271 10242,-1287 10229,-1303 10217,-1319 10204,-1335 10194,-1350 10184,-1362 10177,-1372 10172,-1378 10169,-1381 10169,-1382 10170,-1379 10172,-1375 10176,-1369 10182,-1359 10188,-1349 10197,-1336 10206,-1322 10217,-1308 10227,-1293 10238,-1278 10248,-1264 10259,-1249 10268,-1237 10278,-1225 10288,-1211 10299,-1197 10311,-1182 10325,-1164 10341,-1145 10356,-1126 10371,-1107 10385,-1090 10395,-1078 10402,-1070 10405,-1066 "
       style="fill:none;stroke:#000000;stroke-width:8;stroke-linecap:butt;stroke-linejoin:bevel"
       id="polyline3178"
       transform="matrix(0.07480376,0,0,0.07480376,-434.64871,570.73913)" />
    <polygon
       points="10090,-3156 11055,-3657 11065,-3643 11148,-3683 11510,-3309 11510,-3295 10498,-2724 10433,-2698 10405,-2698 10405,-2698 10341,-2767 10238,-2893 10156,-3018 10090,-3113 "
       style="fill:none;stroke:#000000;stroke-width:8;stroke-linecap:butt;stroke-linejoin:miter"
       id="polygon3180"
       transform="matrix(0.07480376,0,0,0.07480376,-434.64871,570.73913)" />
    <polygon
       points="11175,-3657 11120,-3628 11408,-3317 11472,-3351 11175,-3657 "
       style="fill:#ffffff;stroke:#000000;stroke-width:8;stroke-linecap:butt;stroke-linejoin:miter"
       id="polygon3182"
       transform="matrix(0.07480376,0,0,0.07480376,-434.64871,570.73913)" />
    <g
       style="fill:none;stroke:#000000;stroke-width:1"
       id="g3184"
       transform="matrix(0.07480376,0,0,0.07480376,-700.363,336.45342)">
      <defs
         id="defs3186">
        <pattern
           id="tile3"
           x="0"
           y="0"
           width="200"
           height="200"
           patternUnits="userSpaceOnUse">
          <path
             d="M 0 -100 200 20"
             id="path3189" />
          <path
             d="M 200 -100 0 20"
             id="path3191" />
          <path
             d="M 0 -60 200 60"
             id="path3193" />
          <path
             d="M 200 -60 0 60"
             id="path3195" />
          <path
             d="M 0 -20 200 100"
             id="path3197" />
          <path
             d="M 200 -20 0 100"
             id="path3199" />
          <path
             d="M 0 20 200 140"
             id="path3201" />
          <path
             d="M 200 20 0 140"
             id="path3203" />
          <path
             d="M 0 60 200 180"
             id="path3205" />
          <path
             d="M 200 60 0 180"
             id="path3207" />
          <path
             d="M 0 100 200 220"
             id="path3209" />
          <path
             d="M 200 100 0 220"
             id="path3211" />
          <path
             d="M 0 140 200 260"
             id="path3213" />
          <path
             d="M 200 140 0 260"
             id="path3215" />
          <path
             d="M 0 180 200 300"
             id="path3217" />
          <path
             d="M 200 180 0 300"
             id="path3219" />
        </pattern>
      </defs>
    </g>
    <polygon
       points="11175,-3657 11120,-3628 11408,-3317 11472,-3351 11175,-3657 "
       style="fill:url(#tile3);stroke:#000000;stroke-width:8;stroke-linecap:butt;stroke-linejoin:miter"
       id="polygon3221"
       transform="matrix(0.07480376,0,0,0.07480376,-434.64871,570.73913)" />
    <polygon
       points="11055,-3587 11036,-3587 10508,-3309 10498,-3295 10498,-3295 10740,-3003 10776,-3003 11324,-3295 11324,-3309 "
       style="fill:none;stroke:#000000;stroke-width:8;stroke-linecap:butt;stroke-linejoin:miter"
       id="polygon3223"
       transform="matrix(0.07480376,0,0,0.07480376,-434.64871,570.73913)" />
    <polyline
       points="10405,-3309 10722,-2935 10722,-2920 10684,-2907 10701,-2878 10425,-2724 10425,-2753 10563,-2823 "
       style="fill:none;stroke:#000000;stroke-width:8;stroke-linecap:butt;stroke-linejoin:miter"
       id="polyline3225"
       transform="matrix(0.07480376,0,0,0.07480376,-434.64871,570.73913)" />
    <polyline
       points="10730,-2920 11388,-3281 11388,-3323 11101,-3628 11065,-3628 "
       style="fill:none;stroke:#000000;stroke-width:8;stroke-linecap:butt;stroke-linejoin:miter"
       id="polyline3227"
       transform="matrix(0.07480376,0,0,0.07480376,-434.64871,570.73913)" />
    <polyline
       points="10749,-2907 11388,-3255 "
       style="fill:none;stroke:#000000;stroke-width:8;stroke-linecap:butt;stroke-linejoin:miter"
       id="polyline3229"
       transform="matrix(0.07480376,0,0,0.07480376,-434.64871,570.73913)" />
    <polygon
       points="10384,-2887 10430,-2832 10439,-2847 10393,-2900 10384,-2887 "
       style="fill:none;stroke:#000000;stroke-width:8;stroke-linecap:butt;stroke-linejoin:miter"
       id="polygon3231"
       transform="matrix(0.07480376,0,0,0.07480376,-434.64871,570.73913)" />
    <polygon
       points="10319,-2973 10366,-2916 10375,-2930 10329,-2986 10319,-2973 "
       style="fill:none;stroke:#000000;stroke-width:8;stroke-linecap:butt;stroke-linejoin:miter"
       id="polygon3233"
       transform="matrix(0.07480376,0,0,0.07480376,-434.64871,570.73913)" />
    <polygon
       points="10245,-3069 10291,-3014 10301,-3028 10255,-3083 10245,-3069 "
       style="fill:none;stroke:#000000;stroke-width:8;stroke-linecap:butt;stroke-linejoin:miter"
       id="polygon3235"
       transform="matrix(0.07480376,0,0,0.07480376,-434.64871,570.73913)" />
    <polygon
       points="10188,-3150 10236,-3095 10244,-3110 10198,-3165 10188,-3150 "
       style="fill:none;stroke:#000000;stroke-width:8;stroke-linecap:butt;stroke-linejoin:miter"
       id="polygon3237"
       transform="matrix(0.07480376,0,0,0.07480376,-434.64871,570.73913)" />
    <polyline
       points="10415,-2781 10415,-2782 10412,-2785 10405,-2793 10393,-2807 10379,-2824 10361,-2845 10344,-2865 10327,-2885 10311,-2902 10298,-2919 10286,-2934 10275,-2946 10265,-2959 10256,-2972 10242,-2987 10229,-3004 10217,-3020 10204,-3036 10194,-3050 10184,-3063 10177,-3072 10172,-3079 10169,-3082 10169,-3083 10170,-3080 10172,-3076 10176,-3069 10182,-3060 10188,-3049 10197,-3037 10206,-3023 10217,-3008 10227,-2994 10238,-2979 10248,-2964 10259,-2950 10268,-2938 10278,-2925 10288,-2912 10299,-2898 10311,-2882 10325,-2865 10341,-2846 10356,-2827 10371,-2808 10385,-2791 10395,-2779 10402,-2771 10405,-2767 "
       style="fill:none;stroke:#000000;stroke-width:8;stroke-linecap:butt;stroke-linejoin:bevel"
       id="polyline3239"
       transform="matrix(0.07480376,0,0,0.07480376,-434.64871,570.73913)" />
    <polyline
       points="8551,-708 8551,0 10015,0 "
       style="fill:none;stroke:#000000;stroke-width:8;stroke-linecap:butt;stroke-linejoin:miter"
       id="polyline3241"
       transform="matrix(0.07480376,0,0,0.07480376,-434.64871,570.73913)" />
    <polyline
       points="8409,-755 8409,-1370 10015,-1370 "
       style="fill:none;stroke:#000000;stroke-width:8;stroke-linecap:butt;stroke-linejoin:miter"
       id="polyline3243"
       transform="matrix(0.07480376,0,0,0.07480376,-434.64871,570.73913)" />
    <polyline
       points="7511,-755 7511,-3118 10062,-3118 "
       style="fill:none;stroke:#000000;stroke-width:8;stroke-linecap:butt;stroke-linejoin:miter"
       id="polyline3245"
       transform="matrix(0.07480376,0,0,0.07480376,-434.64871,570.73913)" />
    <polyline
       points="15496,-188 11149,-188 "
       style="fill:none;stroke:#000000;stroke-width:8;stroke-linecap:butt;stroke-linejoin:miter"
       id="polyline3247"
       transform="matrix(0.07480376,0,0,0.07480376,-434.64871,570.73913)" />
    <polyline
       points="15448,-1559 11385,-1559 "
       style="fill:none;stroke:#000000;stroke-width:8;stroke-linecap:butt;stroke-linejoin:miter"
       id="polyline3249"
       transform="matrix(0.07480376,0,0,0.07480376,-434.64871,570.73913)" />
    <polyline
       points="15448,-3212 11433,-3212 "
       style="fill:none;stroke:#000000;stroke-width:8;stroke-linecap:butt;stroke-linejoin:miter"
       id="polyline3251"
       transform="matrix(0.07480376,0,0,0.07480376,-434.64871,570.73913)" />
    <polyline
       points="2220,614 2220,1464 7937,1464 "
       style="fill:none;stroke:#000000;stroke-width:8;stroke-linecap:butt;stroke-linejoin:miter"
       id="polyline3253"
       transform="matrix(0.07480376,0,0,0.07480376,-434.64871,570.73913)" />
    <polyline
       points="8362,1464 15685,1464 15685,425 "
       style="fill:none;stroke:#000000;stroke-width:8;stroke-linecap:butt;stroke-linejoin:miter"
       id="polyline3255"
       transform="matrix(0.07480376,0,0,0.07480376,-434.64871,570.73913)" />
    <polyline
       points="8173,1275 7984,1653 "
       style="fill:none;stroke:#000000;stroke-width:8;stroke-linecap:butt;stroke-linejoin:miter"
       id="polyline3257"
       transform="matrix(0.07480376,0,0,0.07480376,-434.64871,570.73913)" />
    <polyline
       points="8314,1275 8125,1653 "
       style="fill:none;stroke:#000000;stroke-width:8;stroke-linecap:butt;stroke-linejoin:miter"
       id="polyline3259"
       transform="matrix(0.07480376,0,0,0.07480376,-434.64871,570.73913)" />
    <rect
       x="-3.5546353"
       y="210.33463"
       width="911.70825"
       height="427.57828"
       rx="0"
       style="fill:none;stroke:#000000;stroke-width:0.5984301;stroke-linecap:butt;stroke-linejoin:miter;stroke-dasharray:0.7480376, 2.31891656"
       id="rect3261" />
    <rect
       x="526.57959"
       y="503.64017"
       width="127.16639"
       height="70.614746"
       rx="0"
       style="fill:#ffffff;stroke:#000000;stroke-width:0.5984301;stroke-linecap:butt;stroke-linejoin:miter"
       id="rect3263" />
    <rect
       x="526.57959"
       y="401.159"
       width="127.16639"
       height="70.614746"
       rx="0"
       style="fill:#ffffff;stroke:#000000;stroke-width:0.5984301;stroke-linecap:butt;stroke-linejoin:miter"
       id="rect3265" />
    <rect
       x="526.57959"
       y="277.43359"
       width="127.16639"
       height="70.614746"
       rx="0"
       style="fill:#ffffff;stroke:#000000;stroke-width:0.5984301;stroke-linecap:butt;stroke-linejoin:miter"
       id="rect3267" />
    <rect
       x="47.760735"
       y="504.01416"
       width="168.23366"
       height="22.366323"
       rx="0"
       style="fill:#c0c0c0;stroke:#000000;stroke-width:0.5984301;stroke-linecap:round;stroke-linejoin:miter"
       id="rect3269" />
    <rect
       x="109.47384"
       y="509.62445"
       width="44.807453"
       height="11.220564"
       rx="0"
       style="fill:#e0e0e0;stroke:#000000;stroke-width:0;stroke-linecap:round;stroke-linejoin:miter"
       id="rect3271" />
    <rect
       x="87.032707"
       y="509.62445"
       width="11.220564"
       height="11.220564"
       rx="0"
       style="fill:#e0e0e0;stroke:#000000;stroke-width:0;stroke-linecap:round;stroke-linejoin:miter"
       id="rect3273" />
    <rect
       x="165.57666"
       y="509.62445"
       width="44.882256"
       height="11.220564"
       rx="0"
       style="fill:#e0e0e0;stroke:#000000;stroke-width:0;stroke-linecap:round;stroke-linejoin:miter"
       id="rect3275" />
    <circle
       d="m 6641,-743 c 0,11.04569 -8.9543,20 -20,20 -11.0457,0 -20,-8.95431 -20,-20 0,-11.04569 8.9543,-20 20,-20 11.0457,0 20,8.95431 20,20 z"
       sodipodi:ry="20"
       sodipodi:rx="20"
       sodipodi:cy="-743"
       sodipodi:cx="6621"
       cx="6621"
       cy="-743"
       r="20"
       style="fill:none;stroke:#000000;stroke-width:8"
       id="circle3277"
       transform="matrix(0.07480376,0,0,0.07480376,-434.64871,570.73913)" />
    <circle
       d="m 6947,-743 c 0,11.04569 -8.9543,20 -20,20 -11.0457,0 -20,-8.95431 -20,-20 0,-11.04569 8.9543,-20 20,-20 11.0457,0 20,8.95431 20,20 z"
       sodipodi:ry="20"
       sodipodi:rx="20"
       sodipodi:cy="-743"
       sodipodi:cx="6927"
       cx="6927"
       cy="-743"
       r="20"
       style="fill:none;stroke:#000000;stroke-width:8"
       id="circle3279"
       transform="matrix(0.07480376,0,0,0.07480376,-434.64871,570.73913)" />
    <polygon
       points="6658,-732 6660,-722 6662,-713 6665,-706 6668,-700 6672,-695 6677,-691 6682,-689 6685,-688 6686,-688 6687,-688 6691,-688 6703,-688 6721,-688 6746,-688 6774,-688 6803,-688 6828,-688 6846,-688 6857,-688 6861,-688 6862,-688 6864,-688 6867,-689 6872,-691 6876,-695 6880,-700 6883,-706 6886,-713 6889,-722 6891,-732 6893,-743 6895,-753 6896,-764 6897,-772 6897,-780 6897,-784 6897,-787 6895,-790 6894,-792 6892,-794 6889,-795 6887,-796 6885,-797 6883,-797 6882,-797 6879,-797 6870,-797 6855,-797 6832,-797 6805,-797 6774,-797 6744,-797 6717,-797 6693,-797 6679,-797 6669,-797 6666,-797 6665,-797 6664,-797 6662,-796 6660,-795 6657,-794 6655,-792 6653,-790 6651,-787 6650,-784 6650,-780 6650,-780 6650,-772 6651,-764 6654,-753 6655,-743 "
       style="fill:#e0e0e0;stroke:#000000;stroke-width:8;stroke-linecap:round;stroke-linejoin:bevel"
       id="polygon3281"
       transform="matrix(0.07480376,0,0,0.07480376,-434.64871,570.73913)" />
    <rect
       x="111.41874"
       y="511.56937"
       width="7.2559648"
       height="4.8622446"
       rx="0"
       style="fill:#000000;stroke:#000000;stroke-width:0.5984301;stroke-linecap:round;stroke-linejoin:miter"
       id="rect3283" />
    <rect
       x="113.88726"
       y="516.43164"
       width="2.3937204"
       height="2.3937204"
       rx="0"
       style="fill:#000000;stroke:#000000;stroke-width:0.5984301;stroke-linecap:round;stroke-linejoin:miter"
       id="rect3285" />
    <rect
       x="122.63931"
       y="511.56937"
       width="7.2559648"
       height="4.8622446"
       rx="0"
       style="fill:#000000;stroke:#000000;stroke-width:0.5984301;stroke-linecap:round;stroke-linejoin:miter"
       id="rect3287" />
    <rect
       x="125.10783"
       y="516.43164"
       width="2.3189166"
       height="2.3937204"
       rx="0"
       style="fill:#000000;stroke:#000000;stroke-width:0.5984301;stroke-linecap:round;stroke-linejoin:miter"
       id="rect3289" />
    <rect
       x="133.85985"
       y="511.56937"
       width="7.3307686"
       height="4.8622446"
       rx="0"
       style="fill:#000000;stroke:#000000;stroke-width:0.5984301;stroke-linecap:round;stroke-linejoin:miter"
       id="rect3291" />
    <rect
       x="136.32838"
       y="516.43164"
       width="2.3189166"
       height="2.3937204"
       rx="0"
       style="fill:#000000;stroke:#000000;stroke-width:0.5984301;stroke-linecap:round;stroke-linejoin:miter"
       id="rect3293" />
    <rect
       x="145.08043"
       y="511.56937"
       width="7.3307686"
       height="4.8622446"
       rx="0"
       style="fill:#000000;stroke:#000000;stroke-width:0.5984301;stroke-linecap:round;stroke-linejoin:miter"
       id="rect3295" />
    <rect
       x="147.54895"
       y="516.43164"
       width="2.3189166"
       height="2.3937204"
       rx="0"
       style="fill:#000000;stroke:#000000;stroke-width:0.5984301;stroke-linecap:round;stroke-linejoin:miter"
       id="rect3297" />
    <rect
       x="88.977608"
       y="511.56937"
       width="7.2559648"
       height="4.8622446"
       rx="0"
       style="fill:#000000;stroke:#000000;stroke-width:0.5984301;stroke-linecap:round;stroke-linejoin:miter"
       id="rect3299" />
    <rect
       x="91.446129"
       y="516.43164"
       width="2.3937204"
       height="2.3937204"
       rx="0"
       style="fill:#000000;stroke:#000000;stroke-width:0.5984301;stroke-linecap:round;stroke-linejoin:miter"
       id="rect3301" />
    <rect
       x="167.52155"
       y="511.56937"
       width="7.2559648"
       height="4.8622446"
       rx="0"
       style="fill:#000000;stroke:#000000;stroke-width:0.5984301;stroke-linecap:round;stroke-linejoin:miter"
       id="rect3303" />
    <rect
       x="169.99008"
       y="516.43164"
       width="2.3189166"
       height="2.3937204"
       rx="0"
       style="fill:#000000;stroke:#000000;stroke-width:0.5984301;stroke-linecap:round;stroke-linejoin:miter"
       id="rect3305" />
    <rect
       x="178.74211"
       y="511.56937"
       width="7.2559648"
       height="4.8622446"
       rx="0"
       style="fill:#000000;stroke:#000000;stroke-width:0.5984301;stroke-linecap:round;stroke-linejoin:miter"
       id="rect3307" />
    <rect
       x="181.21063"
       y="516.43164"
       width="2.3937204"
       height="2.3937204"
       rx="0"
       style="fill:#000000;stroke:#000000;stroke-width:0.5984301;stroke-linecap:round;stroke-linejoin:miter"
       id="rect3309" />
    <rect
       x="189.96268"
       y="511.56937"
       width="7.2559648"
       height="4.8622446"
       rx="0"
       style="fill:#000000;stroke:#000000;stroke-width:0.5984301;stroke-linecap:round;stroke-linejoin:miter"
       id="rect3311" />
    <rect
       x="192.4312"
       y="516.43164"
       width="2.3937204"
       height="2.3937204"
       rx="0"
       style="fill:#000000;stroke:#000000;stroke-width:0.5984301;stroke-linecap:round;stroke-linejoin:miter"
       id="rect3313" />
    <rect
       x="201.18324"
       y="511.56937"
       width="7.2559648"
       height="4.8622446"
       rx="0"
       style="fill:#000000;stroke:#000000;stroke-width:0.5984301;stroke-linecap:round;stroke-linejoin:miter"
       id="rect3315" />
    <rect
       x="203.65176"
       y="516.43164"
       width="2.3937204"
       height="2.3937204"
       rx="0"
       style="fill:#000000;stroke:#000000;stroke-width:0.5984301;stroke-linecap:round;stroke-linejoin:miter"
       id="rect3317" />
    <polyline
       points="6686,-765 "
       style="fill:none;stroke:#000000;stroke-width:16;stroke-linecap:round;stroke-linejoin:miter"
       id="polyline3319"
       transform="matrix(0.07480376,0,0,0.07480376,-434.64871,570.73913)" />
    <polyline
       points="6730,-765 "
       style="fill:none;stroke:#000000;stroke-width:16;stroke-linecap:round;stroke-linejoin:miter"
       id="polyline3321"
       transform="matrix(0.07480376,0,0,0.07480376,-434.64871,570.73913)" />
    <polyline
       points="6774,-765 "
       style="fill:none;stroke:#000000;stroke-width:16;stroke-linecap:round;stroke-linejoin:miter"
       id="polyline3323"
       transform="matrix(0.07480376,0,0,0.07480376,-434.64871,570.73913)" />
    <polyline
       points="6818,-765 "
       style="fill:none;stroke:#000000;stroke-width:16;stroke-linecap:round;stroke-linejoin:miter"
       id="polyline3325"
       transform="matrix(0.07480376,0,0,0.07480376,-434.64871,570.73913)" />
    <polyline
       points="6862,-765 "
       style="fill:none;stroke:#000000;stroke-width:16;stroke-linecap:round;stroke-linejoin:miter"
       id="polyline3327"
       transform="matrix(0.07480376,0,0,0.07480376,-434.64871,570.73913)" />
    <polyline
       points="6709,-722 "
       style="fill:none;stroke:#000000;stroke-width:16;stroke-linecap:round;stroke-linejoin:miter"
       id="polyline3329"
       transform="matrix(0.07480376,0,0,0.07480376,-434.64871,570.73913)" />
    <polyline
       points="6752,-722 "
       style="fill:none;stroke:#000000;stroke-width:16;stroke-linecap:round;stroke-linejoin:miter"
       id="polyline3331"
       transform="matrix(0.07480376,0,0,0.07480376,-434.64871,570.73913)" />
    <polyline
       points="6796,-722 "
       style="fill:none;stroke:#000000;stroke-width:16;stroke-linecap:round;stroke-linejoin:miter"
       id="polyline3333"
       transform="matrix(0.07480376,0,0,0.07480376,-434.64871,570.73913)" />
    <polyline
       points="6839,-722 "
       style="fill:none;stroke:#000000;stroke-width:16;stroke-linecap:round;stroke-linejoin:miter"
       id="polyline3335"
       transform="matrix(0.07480376,0,0,0.07480376,-434.64871,570.73913)" />
    <polygon
       points="858,-1086 858,-1086 1598,-1433 3423,-1137 3423,-1086 2783,-544 "
       style="fill:#ffffff;stroke:#000000;stroke-width:8;stroke-linecap:butt;stroke-linejoin:miter"
       id="polygon3337"
       transform="matrix(0.07480376,0,0,0.07480376,-434.64871,570.73913)" />
    <polygon
       points="3423,-938 3325,-1137 3325,-1137 3325,-1234 3523,-1333 3622,-1285 3622,-988 "
       style="fill:#7f7f7f;stroke:#000000;stroke-width:8;stroke-linecap:butt;stroke-linejoin:miter"
       id="polygon3339"
       transform="matrix(0.07480376,0,0,0.07480376,-434.64871,570.73913)" />
    <polygon
       points="2141,-2912 2092,-2961 3918,-2912 3867,-2813 2141,-2912 "
       style="fill:#7f7f7f;stroke:#000000;stroke-width:8;stroke-linecap:butt;stroke-linejoin:miter"
       id="polygon3341"
       transform="matrix(0.07480376,0,0,0.07480376,-434.64871,570.73913)" />
    <polygon
       points="858,-988 2783,-544 2388,-198 414,-741 858,-988 "
       style="fill:#ffffff;stroke:#000000;stroke-width:8;stroke-linecap:butt;stroke-linejoin:miter"
       id="polygon3343"
       transform="matrix(0.07480376,0,0,0.07480376,-434.64871,570.73913)" />
    <polygon
       points="858,-988 858,-988 810,-996 316,-741 316,-692 414,-692 "
       style="fill:#ffffff;stroke:#000000;stroke-width:8;stroke-linecap:butt;stroke-linejoin:miter"
       id="polygon3345"
       transform="matrix(0.07480376,0,0,0.07480376,-434.64871,570.73913)" />
    <polygon
       points="961,-1147 961,-1147 1579,-1441 3302,-1128 2789,-746 971,-1138 "
       style="fill:#8e8f8e;stroke:#000000;stroke-width:8;stroke-linecap:butt;stroke-linejoin:miter"
       id="polygon3347"
       transform="matrix(0.07480376,0,0,0.07480376,-434.64871,570.73913)" />
    <polygon
       points="1697,-1728 1845,-1678 3671,-1382 3571,-1481 1697,-1728 "
       style="fill:#7f7f7f;stroke:#000000;stroke-width:8;stroke-linecap:butt;stroke-linejoin:miter"
       id="polygon3349"
       transform="matrix(0.07480376,0,0,0.07480376,-434.64871,570.73913)" />
    <polygon
       points="3423,-1333 3423,-1382 1845,-1629 1845,-1629 1796,-1530 1648,-1481 3325,-1185 3523,-1333 "
       style="fill:#ffffff;stroke:#000000;stroke-width:8;stroke-linecap:butt;stroke-linejoin:miter"
       id="polygon3351"
       transform="matrix(0.07480376,0,0,0.07480376,-434.64871,570.73913)" />
    <polyline
       points="2092,-1580 2091,-1580 2082,-1580 2072,-1579 2062,-1576 2055,-1574 2051,-1571 2048,-1567 2046,-1561 2044,-1553 2043,-1546 2043,-1538 2043,-1530 2043,-1523 2043,-1513 2043,-1502 2043,-1490 2043,-1483 2043,-1481 "
       style="fill:none;stroke:#000000;stroke-width:8;stroke-linecap:butt;stroke-linejoin:bevel"
       id="polyline3353"
       transform="matrix(0.07480376,0,0,0.07480376,-434.64871,570.73913)" />
    <polyline
       points="1845,-1629 1844,-1628 1841,-1624 1834,-1616 1825,-1606 1818,-1596 1812,-1588 1807,-1580 1804,-1571 1801,-1563 1800,-1552 1798,-1539 1797,-1523 1797,-1505 1796,-1490 1796,-1482 1796,-1481 "
       style="fill:none;stroke:#000000;stroke-width:8;stroke-linecap:butt;stroke-linejoin:bevel"
       id="polyline3355"
       transform="matrix(0.07480376,0,0,0.07480376,-434.64871,570.73913)" />
    <polyline
       points="2339,-1530 2338,-1530 2329,-1530 2319,-1529 2309,-1527 2302,-1525 2298,-1522 2295,-1518 2292,-1511 2290,-1504 2289,-1497 2289,-1488 2289,-1481 2289,-1474 2289,-1465 2289,-1454 2289,-1442 2289,-1434 2289,-1433 "
       style="fill:none;stroke:#000000;stroke-width:8;stroke-linecap:butt;stroke-linejoin:bevel"
       id="polyline3357"
       transform="matrix(0.07480376,0,0,0.07480376,-434.64871,570.73913)" />
    <polyline
       points="2733,-1481 2732,-1481 2724,-1481 2713,-1480 2704,-1478 2697,-1476 2692,-1472 2689,-1468 2687,-1463 2685,-1456 2684,-1447 2684,-1440 2684,-1433 2684,-1424 2684,-1416 2684,-1404 2684,-1392 2684,-1384 2684,-1382 "
       style="fill:none;stroke:#000000;stroke-width:8;stroke-linecap:butt;stroke-linejoin:bevel"
       id="polyline3359"
       transform="matrix(0.07480376,0,0,0.07480376,-434.64871,570.73913)" />
    <polygon
       points="4066,-2813 4015,-2912 3918,-2961 3918,-2961 3770,-2418 3819,-2270 3571,-1481 3671,-1382 "
       style="fill:#7f7f7f;stroke:#000000;stroke-width:8;stroke-linecap:butt;stroke-linejoin:miter"
       id="polygon3361"
       transform="matrix(0.07480376,0,0,0.07480376,-434.64871,570.73913)" />
    <polygon
       points="2141,-2912 2141,-2912 2092,-2961 1944,-2616 1993,-2517 1697,-1777 "
       style="fill:#7f7f7f;stroke:#000000;stroke-width:8;stroke-linecap:butt;stroke-linejoin:miter"
       id="polygon3363"
       transform="matrix(0.07480376,0,0,0.07480376,-434.64871,570.73913)" />
    <polygon
       points="3867,-2813 2141,-2912 2141,-2912 1697,-1728 3571,-1481 3819,-2270 3770,-2418 "
       style="fill:#ffffff;stroke:#000000;stroke-width:8;stroke-linecap:butt;stroke-linejoin:miter"
       id="polygon3365"
       transform="matrix(0.07480376,0,0,0.07480376,-434.64871,570.73913)" />
    <polyline
       points="3622,-1433 4015,-2862 "
       style="fill:none;stroke:#000000;stroke-width:8;stroke-linecap:butt;stroke-linejoin:miter"
       id="polyline3367"
       transform="matrix(0.07480376,0,0,0.07480376,-434.64871,570.73913)" />
    <polyline
       points="3819,-2320 3967,-2912 "
       style="fill:none;stroke:#000000;stroke-width:8;stroke-linecap:butt;stroke-linejoin:miter"
       id="polyline3369"
       transform="matrix(0.07480376,0,0,0.07480376,-434.64871,570.73913)" />
    <polygon
       points="2092,-2961 2092,-3011 2843,-2995 2798,-2931 2092,-2961 "
       style="fill:#ffffff;stroke:#000000;stroke-width:8;stroke-linecap:butt;stroke-linejoin:miter"
       id="polygon3371"
       transform="matrix(0.07480376,0,0,0.07480376,-434.64871,570.73913)" />
    <polygon
       points="3905,-2951 3092,-2979 3092,-2921 3890,-2887 3905,-2951 "
       style="fill:#ffffff;stroke:#000000;stroke-width:8;stroke-linecap:butt;stroke-linejoin:miter"
       id="polygon3373"
       transform="matrix(0.07480376,0,0,0.07480376,-434.64871,570.73913)" />
    <polygon
       points="2856,-2999 2856,-2999 2793,-2935 2809,-2872 3078,-2847 3087,-2975 "
       style="fill:#000000;stroke:#000000;stroke-width:8;stroke-linecap:butt;stroke-linejoin:miter"
       id="polygon3375"
       transform="matrix(0.07480376,0,0,0.07480376,-434.64871,570.73913)" />
    <polygon
       points="810,-988 858,-1086 2831,-642 2783,-544 810,-988 "
       style="fill:#7f7f7f;stroke:#000000;stroke-width:8;stroke-linecap:butt;stroke-linejoin:miter"
       id="polygon3377"
       transform="matrix(0.07480376,0,0,0.07480376,-434.64871,570.73913)" />
    <polygon
       points="1648,-1481 1648,-1433 3325,-1137 3325,-1185 1648,-1481 "
       style="fill:#7f7f7f;stroke:#000000;stroke-width:8;stroke-linecap:butt;stroke-linejoin:miter"
       id="polygon3379"
       transform="matrix(0.07480376,0,0,0.07480376,-434.64871,570.73913)" />
    <polygon
       points="3275,-1086 2783,-692 2783,-741 2783,-741 "
       style="fill:#7f7f7f;stroke:#000000;stroke-width:8;stroke-linecap:butt;stroke-linejoin:miter"
       id="polygon3381"
       transform="matrix(0.07480376,0,0,0.07480376,-434.64871,570.73913)" />
    <polygon
       points="2388,-100 2388,47 316,-544 316,-692 2388,-100 "
       style="fill:#7f7f7f;stroke:#000000;stroke-width:8;stroke-linecap:butt;stroke-linejoin:miter"
       id="polygon3383"
       transform="matrix(0.07480376,0,0,0.07480376,-434.64871,570.73913)" />
    <polygon
       points="414,-741 414,-692 2388,-149 2388,-198 414,-741 "
       style="fill:#7f7f7f;stroke:#000000;stroke-width:8;stroke-linecap:butt;stroke-linejoin:miter"
       id="polygon3385"
       transform="matrix(0.07480376,0,0,0.07480376,-434.64871,570.73913)" />
    <polygon
       points="2388,-100 2388,-149 414,-692 316,-692 2388,-100 "
       style="fill:#000000;stroke:#000000;stroke-width:8;stroke-linecap:butt;stroke-linejoin:miter"
       id="polygon3387"
       transform="matrix(0.07480376,0,0,0.07480376,-434.64871,570.73913)" />
    <polygon
       points="2388,-198 2388,47 3423,-889 3423,-1086 2388,-198 "
       style="fill:#7f7f7f;stroke:#000000;stroke-width:8;stroke-linecap:butt;stroke-linejoin:miter"
       id="polygon3389"
       transform="matrix(0.07480376,0,0,0.07480376,-434.64871,570.73913)" />
    <polygon
       points="958,-1137 958,-1086 2783,-692 2783,-741 958,-1137 "
       style="fill:#7f7f7f;stroke:#000000;stroke-width:8;stroke-linecap:butt;stroke-linejoin:miter"
       id="polygon3391"
       transform="matrix(0.07480376,0,0,0.07480376,-434.64871,570.73913)" />
    <polygon
       points="1895,-1728 1895,-1678 1895,-1678 1845,-1629 3423,-1382 3474,-1433 3423,-1481 "
       style="fill:#ffffff;stroke:#000000;stroke-width:8;stroke-linecap:butt;stroke-linejoin:miter"
       id="polygon3393"
       transform="matrix(0.07480376,0,0,0.07480376,-434.64871,570.73913)" />
    <polyline
       points="1796,-1530 3227,-1333 "
       style="fill:none;stroke:#000000;stroke-width:8;stroke-linecap:butt;stroke-linejoin:miter"
       id="polyline3395"
       transform="matrix(0.07480376,0,0,0.07480376,-434.64871,570.73913)" />
    <polyline
       points="3227,-1333 3375,-1333 3423,-1333 "
       style="fill:none;stroke:#000000;stroke-width:8;stroke-linecap:butt;stroke-linejoin:miter"
       id="polyline3397"
       transform="matrix(0.07480376,0,0,0.07480376,-434.64871,570.73913)" />
    <polyline
       points="1796,-1481 3227,-1285 "
       style="fill:none;stroke:#000000;stroke-width:8;stroke-linecap:butt;stroke-linejoin:miter"
       id="polyline3399"
       transform="matrix(0.07480376,0,0,0.07480376,-434.64871,570.73913)" />
    <polyline
       points="2733,-1333 2684,-1333 3177,-1234 3275,-1285 "
       style="fill:none;stroke:#000000;stroke-width:8;stroke-linecap:butt;stroke-linejoin:miter"
       id="polyline3401"
       transform="matrix(0.07480376,0,0,0.07480376,-434.64871,570.73913)" />
    <ellipse
       d="M 98,0 C 98,26.509668 54.123905,48 0,48 -54.123905,48 -98,26.509668 -98,0 c 0,-26.509668 43.876095,-48 98,-48 54.123905,0 98,21.490332 98,48 z"
       sodipodi:ry="48"
       sodipodi:rx="98"
       sodipodi:cy="0"
       sodipodi:cx="0"
       cy="0"
       cx="0"
       transform="matrix(0.07480376,0,0,0.07480376,-315.1123,467.36033)"
       rx="98"
       ry="48"
       style="fill:#ffffff;stroke:#000000;stroke-width:8"
       id="ellipse3403" />
    <ellipse
       d="M 98,0 C 98,26.509668 54.123905,48 0,48 -54.123905,48 -98,26.509668 -98,0 c 0,-26.509668 43.876095,-48 98,-48 54.123905,0 98,21.490332 98,48 z"
       sodipodi:ry="48"
       sodipodi:rx="98"
       sodipodi:cy="0"
       sodipodi:cx="0"
       cy="0"
       cx="0"
       transform="matrix(0.07480376,0,0,0.07480376,-284.29315,473.19503)"
       rx="98"
       ry="48"
       style="fill:#ffffff;stroke:#000000;stroke-width:8"
       id="ellipse3405" />
    <ellipse
       d="M 98,0 C 98,26.509668 54.123905,48 0,48 -54.123905,48 -98,26.509668 -98,0 c 0,-26.509668 43.876095,-48 98,-48 54.123905,0 98,21.490332 98,48 z"
       sodipodi:ry="48"
       sodipodi:rx="98"
       sodipodi:cy="0"
       sodipodi:cx="0"
       cy="0"
       cx="0"
       transform="matrix(0.07480376,0,0,0.07480376,-299.40351,470.20288)"
       rx="98"
       ry="48"
       style="fill:#ffffff;stroke:#000000;stroke-width:8"
       id="ellipse3407" />
    <ellipse
       d="M 98,0 C 98,26.509668 54.123905,48 0,48 -54.123905,48 -98,26.509668 -98,0 c 0,-26.509668 43.876095,-48 98,-48 54.123905,0 98,21.490332 98,48 z"
       sodipodi:ry="48"
       sodipodi:rx="98"
       sodipodi:cy="0"
       sodipodi:cx="0"
       cy="0"
       cx="0"
       transform="matrix(0.07480376,0,0,0.07480376,-270.37965,476.11237)"
       rx="98"
       ry="48"
       style="fill:#ffffff;stroke:#000000;stroke-width:8"
       id="ellipse3409" />
    <ellipse
       d="M 98,0 C 98,26.509668 54.123905,48 0,48 -54.123905,48 -98,26.509668 -98,0 c 0,-26.509668 43.876095,-48 98,-48 54.123905,0 98,21.490332 98,48 z"
       sodipodi:ry="48"
       sodipodi:rx="98"
       sodipodi:cy="0"
       sodipodi:cx="0"
       cy="0"
       cx="0"
       transform="matrix(0.07480376,0,0,0.07480376,-256.91498,479.02972)"
       rx="98"
       ry="48"
       style="fill:#ffffff;stroke:#000000;stroke-width:8"
       id="ellipse3411" />
    <ellipse
       d="M 98,0 C 98,26.509668 54.123905,48 0,48 -54.123905,48 -98,26.509668 -98,0 c 0,-26.509668 43.876095,-48 98,-48 54.123905,0 98,21.490332 98,48 z"
       sodipodi:ry="48"
       sodipodi:rx="98"
       sodipodi:cy="0"
       sodipodi:cx="0"
       cy="0"
       cx="0"
       transform="matrix(0.07480376,0,0,0.07480376,-242.17864,482.02187)"
       rx="98"
       ry="48"
       style="fill:#ffffff;stroke:#000000;stroke-width:8"
       id="ellipse3413" />
    <ellipse
       d="M 98,0 C 98,26.509668 54.123905,48 0,48 -54.123905,48 -98,26.509668 -98,0 c 0,-26.509668 43.876095,-48 98,-48 54.123905,0 98,21.490332 98,48 z"
       sodipodi:ry="48"
       sodipodi:rx="98"
       sodipodi:cy="0"
       sodipodi:cx="0"
       cy="0"
       cx="0"
       transform="matrix(0.07480376,0,0,0.07480376,-228.26514,484.11638)"
       rx="98"
       ry="48"
       style="fill:#ffffff;stroke:#000000;stroke-width:8"
       id="ellipse3415" />
    <ellipse
       d="M 98,0 C 98,26.509668 54.123905,48 0,48 -54.123905,48 -98,26.509668 -98,0 c 0,-26.509668 43.876095,-48 98,-48 54.123905,0 98,21.490332 98,48 z"
       sodipodi:ry="48"
       sodipodi:rx="98"
       sodipodi:cy="0"
       sodipodi:cx="0"
       cy="0"
       cx="0"
       transform="matrix(0.07480376,0,0,0.07480376,-213.6036,487.10853)"
       rx="98"
       ry="48"
       style="fill:#ffffff;stroke:#000000;stroke-width:8"
       id="ellipse3417" />
    <ellipse
       d="M 98,0 C 98,26.509668 54.123905,48 0,48 -54.123905,48 -98,26.509668 -98,0 c 0,-26.509668 43.876095,-48 98,-48 54.123905,0 98,21.490332 98,48 z"
       sodipodi:ry="48"
       sodipodi:rx="98"
       sodipodi:cy="0"
       sodipodi:cx="0"
       cy="0"
       cx="0"
       transform="matrix(0.07480376,0,0,0.07480376,-199.98931,490.10068)"
       rx="98"
       ry="48"
       style="fill:#ffffff;stroke:#000000;stroke-width:8"
       id="ellipse3419" />
    <ellipse
       d="M 98,0 C 98,26.509668 54.123905,48 0,48 -54.123905,48 -98,26.509668 -98,0 c 0,-26.509668 43.876095,-48 98,-48 54.123905,0 98,21.490332 98,48 z"
       sodipodi:ry="48"
       sodipodi:rx="98"
       sodipodi:cy="0"
       sodipodi:cx="0"
       cy="0"
       cx="0"
       transform="matrix(0.07480376,0,0,0.07480376,-335.98255,480.15178)"
       rx="98"
       ry="48"
       style="fill:#ffffff;stroke:#000000;stroke-width:8"
       id="ellipse3421" />
    <ellipse
       d="M 98,0 C 98,26.509668 54.123905,48 0,48 -54.123905,48 -98,26.509668 -98,0 c 0,-26.509668 43.876095,-48 98,-48 54.123905,0 98,21.490332 98,48 z"
       sodipodi:ry="48"
       sodipodi:rx="98"
       sodipodi:cy="0"
       sodipodi:cx="0"
       cy="0"
       cx="0"
       transform="matrix(0.07480376,0,0,0.07480376,-305.1634,486.06127)"
       rx="98"
       ry="48"
       style="fill:#ffffff;stroke:#000000;stroke-width:8"
       id="ellipse3423" />
    <ellipse
       d="M 98,0 C 98,26.509668 54.123905,48 0,48 -54.123905,48 -98,26.509668 -98,0 c 0,-26.509668 43.876095,-48 98,-48 54.123905,0 98,21.490332 98,48 z"
       sodipodi:ry="48"
       sodipodi:rx="98"
       sodipodi:cy="0"
       sodipodi:cx="0"
       cy="0"
       cx="0"
       transform="matrix(0.07480376,0,0,0.07480376,-320.27376,483.06912)"
       rx="98"
       ry="48"
       style="fill:#ffffff;stroke:#000000;stroke-width:8"
       id="ellipse3425" />
    <ellipse
       d="M 98,0 C 98,26.509668 54.123905,48 0,48 -54.123905,48 -98,26.509668 -98,0 c 0,-26.509668 43.876095,-48 98,-48 54.123905,0 98,21.490332 98,48 z"
       sodipodi:ry="48"
       sodipodi:rx="98"
       sodipodi:cy="0"
       sodipodi:cx="0"
       cy="0"
       cx="0"
       transform="matrix(0.07480376,0,0,0.07480376,-291.2499,488.97862)"
       rx="98"
       ry="48"
       style="fill:#ffffff;stroke:#000000;stroke-width:8"
       id="ellipse3427" />
    <ellipse
       d="M 98,0 C 98,26.509668 54.123905,48 0,48 -54.123905,48 -98,26.509668 -98,0 c 0,-26.509668 43.876095,-48 98,-48 54.123905,0 98,21.490332 98,48 z"
       sodipodi:ry="48"
       sodipodi:rx="98"
       sodipodi:cy="0"
       sodipodi:cx="0"
       cy="0"
       cx="0"
       transform="matrix(0.07480376,0,0,0.07480376,-277.78523,491.89597)"
       rx="98"
       ry="48"
       style="fill:#ffffff;stroke:#000000;stroke-width:8"
       id="ellipse3429" />
    <ellipse
       d="M 98,0 C 98,26.509668 54.123905,48 0,48 -54.123905,48 -98,26.509668 -98,0 c 0,-26.509668 43.876095,-48 98,-48 54.123905,0 98,21.490332 98,48 z"
       sodipodi:ry="48"
       sodipodi:rx="98"
       sodipodi:cy="0"
       sodipodi:cx="0"
       cy="0"
       cx="0"
       transform="matrix(0.07480376,0,0,0.07480376,-263.12369,494.81331)"
       rx="98"
       ry="48"
       style="fill:#ffffff;stroke:#000000;stroke-width:8"
       id="ellipse3431" />
    <ellipse
       d="M 98,0 C 98,26.509668 54.123905,48 0,48 -54.123905,48 -98,26.509668 -98,0 c 0,-26.509668 43.876095,-48 98,-48 54.123905,0 98,21.490332 98,48 z"
       sodipodi:ry="48"
       sodipodi:rx="98"
       sodipodi:cy="0"
       sodipodi:cx="0"
       cy="0"
       cx="0"
       transform="matrix(0.07480376,0,0,0.07480376,-249.21019,497.05743)"
       rx="98"
       ry="48"
       style="fill:#ffffff;stroke:#000000;stroke-width:8"
       id="ellipse3433" />
    <ellipse
       d="M 98,0 C 98,26.509668 54.123905,48 0,48 -54.123905,48 -98,26.509668 -98,0 c 0,-26.509668 43.876095,-48 98,-48 54.123905,0 98,21.490332 98,48 z"
       sodipodi:ry="48"
       sodipodi:rx="98"
       sodipodi:cy="0"
       sodipodi:cx="0"
       cy="0"
       cx="0"
       transform="matrix(0.07480376,0,0,0.07480376,-234.47385,499.97477)"
       rx="98"
       ry="48"
       style="fill:#ffffff;stroke:#000000;stroke-width:8"
       id="ellipse3435" />
    <ellipse
       d="M 98,0 C 98,26.509668 54.123905,48 0,48 -54.123905,48 -98,26.509668 -98,0 c 0,-26.509668 43.876095,-48 98,-48 54.123905,0 98,21.490332 98,48 z"
       sodipodi:ry="48"
       sodipodi:rx="98"
       sodipodi:cy="0"
       sodipodi:cx="0"
       cy="0"
       cx="0"
       transform="matrix(0.07480376,0,0,0.07480376,-220.93437,502.89212)"
       rx="98"
       ry="48"
       style="fill:#ffffff;stroke:#000000;stroke-width:8"
       id="ellipse3437" />
    <ellipse
       d="M 98,0 C 98,26.509668 54.123905,48 0,48 -54.123905,48 -98,26.509668 -98,0 c 0,-26.509668 43.876095,-48 98,-48 54.123905,0 98,21.490332 98,48 z"
       sodipodi:ry="48"
       sodipodi:rx="98"
       sodipodi:cy="0"
       sodipodi:cx="0"
       cy="0"
       cx="0"
       transform="matrix(0.07480376,0,0,0.07480376,-325.28561,473.56905)"
       rx="98"
       ry="48"
       style="fill:#ffffff;stroke:#000000;stroke-width:8"
       id="ellipse3439" />
    <ellipse
       d="M 98,0 C 98,26.509668 54.123905,48 0,48 -54.123905,48 -98,26.509668 -98,0 c 0,-26.509668 43.876095,-48 98,-48 54.123905,0 98,21.490332 98,48 z"
       sodipodi:ry="48"
       sodipodi:rx="98"
       sodipodi:cy="0"
       sodipodi:cx="0"
       cy="0"
       cx="0"
       transform="matrix(0.07480376,0,0,0.07480376,-294.61607,479.32894)"
       rx="98"
       ry="48"
       style="fill:#ffffff;stroke:#000000;stroke-width:8"
       id="ellipse3441" />
    <ellipse
       d="M 98,0 C 98,26.509668 54.123905,48 0,48 -54.123905,48 -98,26.509668 -98,0 c 0,-26.509668 43.876095,-48 98,-48 54.123905,0 98,21.490332 98,48 z"
       sodipodi:ry="48"
       sodipodi:rx="98"
       sodipodi:cy="0"
       sodipodi:cx="0"
       cy="0"
       cx="0"
       transform="matrix(0.07480376,0,0,0.07480376,-309.57682,476.48639)"
       rx="98"
       ry="48"
       style="fill:#ffffff;stroke:#000000;stroke-width:8"
       id="ellipse3443" />
    <ellipse
       d="M 98,0 C 98,26.509668 54.123905,48 0,48 -54.123905,48 -98,26.509668 -98,0 c 0,-26.509668 43.876095,-48 98,-48 54.123905,0 98,21.490332 98,48 z"
       sodipodi:ry="48"
       sodipodi:rx="98"
       sodipodi:cy="0"
       sodipodi:cx="0"
       cy="0"
       cx="0"
       transform="matrix(0.07480376,0,0,0.07480376,-280.70257,482.39589)"
       rx="98"
       ry="48"
       style="fill:#ffffff;stroke:#000000;stroke-width:8"
       id="ellipse3445" />
    <ellipse
       d="M 98,0 C 98,26.509668 54.123905,48 0,48 -54.123905,48 -98,26.509668 -98,0 c 0,-26.509668 43.876095,-48 98,-48 54.123905,0 98,21.490332 98,48 z"
       sodipodi:ry="48"
       sodipodi:rx="98"
       sodipodi:cy="0"
       sodipodi:cx="0"
       cy="0"
       cx="0"
       transform="matrix(0.07480376,0,0,0.07480376,-267.08829,485.31324)"
       rx="98"
       ry="48"
       style="fill:#ffffff;stroke:#000000;stroke-width:8"
       id="ellipse3447" />
    <ellipse
       d="M 98,0 C 98,26.509668 54.123905,48 0,48 -54.123905,48 -98,26.509668 -98,0 c 0,-26.509668 43.876095,-48 98,-48 54.123905,0 98,21.490332 98,48 z"
       sodipodi:ry="48"
       sodipodi:rx="98"
       sodipodi:cy="0"
       sodipodi:cx="0"
       cy="0"
       cx="0"
       transform="matrix(0.07480376,0,0,0.07480376,-252.50155,488.23058)"
       rx="98"
       ry="48"
       style="fill:#ffffff;stroke:#000000;stroke-width:8"
       id="ellipse3449" />
    <ellipse
       d="M 98,0 C 98,26.509668 54.123905,48 0,48 -54.123905,48 -98,26.509668 -98,0 c 0,-26.509668 43.876095,-48 98,-48 54.123905,0 98,21.490332 98,48 z"
       sodipodi:ry="48"
       sodipodi:rx="98"
       sodipodi:cy="0"
       sodipodi:cx="0"
       cy="0"
       cx="0"
       transform="matrix(0.07480376,0,0,0.07480376,-238.51325,490.39989)"
       rx="98"
       ry="48"
       style="fill:#ffffff;stroke:#000000;stroke-width:8"
       id="ellipse3451" />
    <ellipse
       d="M 98,0 C 98,26.509668 54.123905,48 0,48 -54.123905,48 -98,26.509668 -98,0 c 0,-26.509668 43.876095,-48 98,-48 54.123905,0 98,21.490332 98,48 z"
       sodipodi:ry="48"
       sodipodi:rx="98"
       sodipodi:cy="0"
       sodipodi:cx="0"
       cy="0"
       cx="0"
       transform="matrix(0.07480376,0,0,0.07480376,-223.85171,493.39204)"
       rx="98"
       ry="48"
       style="fill:#ffffff;stroke:#000000;stroke-width:8"
       id="ellipse3453" />
    <ellipse
       d="M 98,0 C 98,26.509668 54.123905,48 0,48 -54.123905,48 -98,26.509668 -98,0 c 0,-26.509668 43.876095,-48 98,-48 54.123905,0 98,21.490332 98,48 z"
       sodipodi:ry="48"
       sodipodi:rx="98"
       sodipodi:cy="0"
       sodipodi:cx="0"
       cy="0"
       cx="0"
       transform="matrix(0.07480376,0,0,0.07480376,-210.23743,496.30939)"
       rx="98"
       ry="48"
       style="fill:#ffffff;stroke:#000000;stroke-width:8"
       id="ellipse3455" />
    <ellipse
       d="M 98,0 C 98,26.509668 54.123905,48 0,48 -54.123905,48 -98,26.509668 -98,0 c 0,-26.509668 43.876095,-48 98,-48 54.123905,0 98,21.490332 98,48 z"
       sodipodi:ry="48"
       sodipodi:rx="98"
       sodipodi:cy="0"
       sodipodi:cx="0"
       cy="0"
       cx="0"
       transform="matrix(0.07480376,0,0,0.07480376,-346.9787,486.06127)"
       rx="98"
       ry="48"
       style="fill:#ffffff;stroke:#000000;stroke-width:8"
       id="ellipse3457" />
    <ellipse
       d="M 98,0 C 98,26.509668 54.123905,48 0,48 -54.123905,48 -98,26.509668 -98,0 c 0,-26.509668 43.876095,-48 98,-48 54.123905,0 98,21.490332 98,48 z"
       sodipodi:ry="48"
       sodipodi:rx="98"
       sodipodi:cy="0"
       sodipodi:cx="0"
       cy="0"
       cx="0"
       transform="matrix(0.07480376,0,0,0.07480376,-316.15955,491.89597)"
       rx="98"
       ry="48"
       style="fill:#ffffff;stroke:#000000;stroke-width:8"
       id="ellipse3459" />
    <ellipse
       d="M 98,0 C 98,26.509668 54.123905,48 0,48 -54.123905,48 -98,26.509668 -98,0 c 0,-26.509668 43.876095,-48 98,-48 54.123905,0 98,21.490332 98,48 z"
       sodipodi:ry="48"
       sodipodi:rx="98"
       sodipodi:cy="0"
       sodipodi:cx="0"
       cy="0"
       cx="0"
       transform="matrix(0.07480376,0,0,0.07480376,-331.26991,488.82901)"
       rx="98"
       ry="48"
       style="fill:#ffffff;stroke:#000000;stroke-width:8"
       id="ellipse3461" />
    <ellipse
       d="M 98,0 C 98,26.509668 54.123905,48 0,48 -54.123905,48 -98,26.509668 -98,0 c 0,-26.509668 43.876095,-48 98,-48 54.123905,0 98,21.490332 98,48 z"
       sodipodi:ry="48"
       sodipodi:rx="98"
       sodipodi:cy="0"
       sodipodi:cx="0"
       cy="0"
       cx="0"
       transform="matrix(0.07480376,0,0,0.07480376,-302.24605,494.81331)"
       rx="98"
       ry="48"
       style="fill:#ffffff;stroke:#000000;stroke-width:8"
       id="ellipse3463" />
    <ellipse
       d="M 98,0 C 98,26.509668 54.123905,48 0,48 -54.123905,48 -98,26.509668 -98,0 c 0,-26.509668 43.876095,-48 98,-48 54.123905,0 98,21.490332 98,48 z"
       sodipodi:ry="48"
       sodipodi:rx="98"
       sodipodi:cy="0"
       sodipodi:cx="0"
       cy="0"
       cx="0"
       transform="matrix(0.07480376,0,0,0.07480376,-288.78138,497.73066)"
       rx="98"
       ry="48"
       style="fill:#ffffff;stroke:#000000;stroke-width:8"
       id="ellipse3465" />
    <ellipse
       d="M 98,0 C 98,26.509668 54.123905,48 0,48 -54.123905,48 -98,26.509668 -98,0 c 0,-26.509668 43.876095,-48 98,-48 54.123905,0 98,21.490332 98,48 z"
       sodipodi:ry="48"
       sodipodi:rx="98"
       sodipodi:cy="0"
       sodipodi:cx="0"
       cy="0"
       cx="0"
       transform="matrix(0.07480376,0,0,0.07480376,-274.11984,500.72281)"
       rx="98"
       ry="48"
       style="fill:#ffffff;stroke:#000000;stroke-width:8"
       id="ellipse3467" />
    <ellipse
       d="M 98,0 C 98,26.509668 54.123905,48 0,48 -54.123905,48 -98,26.509668 -98,0 c 0,-26.509668 43.876095,-48 98,-48 54.123905,0 98,21.490332 98,48 z"
       sodipodi:ry="48"
       sodipodi:rx="98"
       sodipodi:cy="0"
       sodipodi:cx="0"
       cy="0"
       cx="0"
       transform="matrix(0.07480376,0,0,0.07480376,-260.20634,502.89212)"
       rx="98"
       ry="48"
       style="fill:#ffffff;stroke:#000000;stroke-width:8"
       id="ellipse3469" />
    <ellipse
       d="M 98,0 C 98,26.509668 54.123905,48 0,48 -54.123905,48 -98,26.509668 -98,0 c 0,-26.509668 43.876095,-48 98,-48 54.123905,0 98,21.490332 98,48 z"
       sodipodi:ry="48"
       sodipodi:rx="98"
       sodipodi:cy="0"
       sodipodi:cx="0"
       cy="0"
       cx="0"
       transform="matrix(0.07480376,0,0,0.07480376,-245.47,505.80947)"
       rx="98"
       ry="48"
       style="fill:#ffffff;stroke:#000000;stroke-width:8"
       id="ellipse3471" />
    <ellipse
       d="M 98,0 C 98,26.509668 54.123905,48 0,48 -54.123905,48 -98,26.509668 -98,0 c 0,-26.509668 43.876095,-48 98,-48 54.123905,0 98,21.490332 98,48 z"
       sodipodi:ry="48"
       sodipodi:rx="98"
       sodipodi:cy="0"
       sodipodi:cx="0"
       cy="0"
       cx="0"
       transform="matrix(0.07480376,0,0,0.07480376,-231.93052,508.80162)"
       rx="98"
       ry="48"
       style="fill:#ffffff;stroke:#000000;stroke-width:8"
       id="ellipse3473" />
    <circle
       d="m 1618,-544 c 0,38.10765 -30.8924,69 -69,69 -38.1076,0 -69,-30.89235 -69,-69 0,-38.10765 30.8924,-69 69,-69 38.1076,0 69,30.89235 69,69 z"
       sodipodi:ry="69"
       sodipodi:rx="69"
       sodipodi:cy="-544"
       sodipodi:cx="1549"
       cx="1549"
       cy="-544"
       r="69"
       style="fill:#7f7f7f;stroke:#000000;stroke-width:8"
       id="circle3475"
       transform="matrix(0.07480376,0,0,0.07480376,-434.64871,570.73913)" />
    <circle
       d="m 1470,-593 c 0,38.10765 -30.8924,69 -69,69 -38.1076,0 -69,-30.89235 -69,-69 0,-38.10765 30.8924,-69 69,-69 38.1076,0 69,30.89235 69,69 z"
       sodipodi:ry="69"
       sodipodi:rx="69"
       sodipodi:cy="-593"
       sodipodi:cx="1401"
       cx="1401"
       cy="-593"
       r="69"
       style="fill:#7f7f7f;stroke:#000000;stroke-width:8"
       id="circle3477"
       transform="matrix(0.07480376,0,0,0.07480376,-434.64871,570.73913)" />
    <polyline
       points="1993,-1876 2289,-2764 3671,-2665 "
       style="fill:none;stroke:#000000;stroke-width:32;stroke-linecap:butt;stroke-linejoin:miter"
       id="polyline3479"
       transform="matrix(0.07480376,0,0,0.07480376,-434.64871,570.73913)" />
    <polygon
       points="3671,-2665 3423,-1678 1993,-1876 2289,-2764 3671,-2665 "
       style="fill:#ffffff;stroke:#000000;stroke-width:8;stroke-linecap:butt;stroke-linejoin:miter"
       id="polygon3481"
       transform="matrix(0.07480376,0,0,0.07480376,-434.64871,570.73913)" />
    <polygon
       points="1401,-692 1697,-593 1845,-741 1549,-840 1401,-692 "
       style="fill:#7f7f7f;stroke:#000000;stroke-width:8;stroke-linecap:butt;stroke-linejoin:miter"
       id="polygon3483"
       transform="matrix(0.07480376,0,0,0.07480376,-434.64871,570.73913)" />
    <polygon
       points="2831,-544 3375,-988 3375,-938 2831,-494 2831,-544 "
       style="fill:#000000;stroke:#000000;stroke-width:8;stroke-linecap:butt;stroke-linejoin:miter"
       id="polygon3485"
       transform="matrix(0.07480376,0,0,0.07480376,-434.64871,570.73913)" />
    <text
       xml:space="preserve"
       style="font-size:22px;font-style:normal;font-variant:normal;font-weight:normal;font-stretch:normal;line-height:125%;letter-spacing:0px;word-spacing:0px;fill:#000000;fill-opacity:1;stroke:none;font-family:'S';-inkscape-font-specification:'S'"
       x="56.097561"
       y="569.43536"
       id="text3215"
       sodipodi:linespacing="125%"><tspan
         sodipodi:role="line"
         id="tspan3217"
         x="56.097561"
         y="569.43536"></tspan></text>
    <text
       xml:space="preserve"
       style="font-size:22px;font-style:normal;font-variant:normal;font-weight:normal;font-stretch:normal;line-height:125%;letter-spacing:0px;word-spacing:0px;fill:#000000;fill-opacity:1;stroke:none;font-family:'S';-inkscape-font-specification:'S'"
       x="557.31708"
       y="321.87439"
       id="text3219"
       sodipodi:linespacing="125%"><tspan
         sodipodi:role="line"
         id="tspan3221"
         x="557.31708"
         y="321.87439"></tspan></text>
    <text
       xml:space="preserve"
       style="font-size:22px;font-style:normal;font-variant:normal;font-weight:normal;font-stretch:normal;line-height:125%;letter-spacing:0px;word-spacing:0px;fill:#000000;fill-opacity:1;stroke:none;font-family:'S';-inkscape-font-specification:'S'"
       x="555.80438"
       y="445.60403"
       id="text3219-9"
       sodipodi:linespacing="125%"><tspan
         sodipodi:role="line"
         id="tspan3221-8"
         x="555.80438"
         y="445.60403"></tspan></text>
    <text
       xml:space="preserve"
       style="font-size:22px;font-style:normal;font-variant:normal;font-weight:normal;font-stretch:normal;line-height:125%;letter-spacing:0px;word-spacing:0px;fill:#000000;fill-opacity:1;stroke:none;font-family:'S';-inkscape-font-specification:'S'"
       x="557.02393"
       y="549.26257"
       id="text3219-0"
       sodipodi:linespacing="125%"><tspan
         sodipodi:role="line"
         id="tspan3221-7"
         x="557.02393"
         y="549.26257"></tspan></text>
  </g>
</svg>
